<?xml version="1.0" standalone="no"?>
<!DOCTYPE svg PUBLIC "-//W3C//DTD SVG 20010904//EN"
 "http://www.w3.org/TR/2001/REC-SVG-20010904/DTD/svg10.dtd">
<svg version="1.0" xmlns="http://www.w3.org/2000/svg"
 width="680.000000pt" height="680.000000pt" viewBox="0 0 680.000000 680.000000"
 preserveAspectRatio="xMidYMid meet">
<metadata>
Created by potrace 1.14, written by Peter Selinger 2001-2017
</metadata>
<g transform="translate(0.000000,680.000000) scale(0.100000,-0.100000)"
fill="#000000" stroke="none">
<path d="M0 3738 c1 -2584 3 -3058 14 -3028 120 309 181 402 309 465 43 21
106 42 157 51 78 15 237 50 500 110 178 42 348 74 385 74 20 0 95 -20 168 -44
73 -24 166 -51 207 -61 96 -23 115 -33 228 -117 103 -78 165 -139 183 -180 9
-23 8 -32 -5 -53 -16 -25 -44 -37 -30 -13 6 10 5 10 -7 1 -8 -6 -36 -10 -64
-8 -34 2 -44 1 -30 -5 19 -8 19 -9 -2 -9 -12 -1 -25 4 -28 10 -4 6 -20 8 -38
4 -21 -4 -27 -3 -19 3 11 7 11 10 -3 15 -10 4 -14 3 -9 -4 4 -8 -1 -9 -17 -4
l-24 7 24 -18 c19 -13 45 -18 112 -18 55 -1 82 -4 72 -10 -24 -13 -154 -1
-198 19 -124 56 -126 57 -114 71 9 11 8 14 -5 14 -22 0 -21 17 2 23 9 2 0 4
-20 3 l-38 0 23 -25 c19 -22 19 -23 2 -11 -11 8 -31 23 -44 35 -13 11 -21 15
-18 8 4 -6 1 -14 -5 -16 -7 -3 -5 -6 6 -6 11 -1 17 -4 14 -7 -3 -3 -25 0 -48
6 -34 9 -39 14 -30 26 14 16 -1 19 -17 3 -8 -8 -17 -8 -31 0 -31 17 -195 13
-259 -5 -30 -9 -57 -13 -60 -10 -3 2 10 9 28 15 32 9 32 9 7 10 -15 1 -39 -4
-55 -10 -26 -10 -27 -12 -8 -20 15 -7 12 -7 -12 -3 -32 5 -188 -26 -166 -33 7
-3 28 0 47 6 20 5 38 6 41 1 3 -4 -10 -11 -28 -14 -41 -8 -60 -12 -124 -30
-29 -8 -70 -13 -90 -11 -32 4 -34 3 -13 -4 21 -8 17 -10 -25 -10 -65 -1 -215
-17 -222 -25 -12 -12 5 -16 93 -22 113 -8 213 9 462 78 152 43 202 52 267 53
92 0 125 -14 241 -107 38 -30 90 -67 117 -82 66 -38 81 -64 73 -127 -17 -128
-63 -188 -189 -243 l-56 -25 -7 22 c-17 50 -10 61 20 31 15 -14 16 -14 16 0 0
9 -7 16 -16 16 -9 0 -12 5 -8 12 5 8 2 9 -10 5 -10 -4 -15 -3 -11 3 3 6 13 10
21 10 8 0 14 6 14 14 0 9 -11 12 -37 11 -30 -2 -42 2 -56 21 -22 29 -7 32 18
4 10 -11 25 -20 34 -19 14 0 14 1 1 6 -8 4 -23 15 -32 26 -10 11 -24 17 -33
14 -8 -4 -31 3 -51 15 -37 22 -118 28 -214 15 -32 -4 -38 -4 -20 2 l25 9 -25
1 c-14 1 -36 4 -49 8 -18 5 -22 3 -16 -6 6 -10 1 -11 -16 -6 -19 5 -21 4 -9
-5 12 -8 8 -10 -20 -8 -24 2 -34 -1 -32 -10 1 -9 -6 -11 -25 -7 -25 5 -25 4
-6 -4 15 -7 35 -5 70 8 27 10 55 15 62 13 8 -3 -35 -19 -95 -37 -60 -18 -118
-36 -129 -41 -18 -7 -18 -6 -6 9 13 16 2 25 -13 10 -3 -4 -16 -8 -29 -10 -12
-2 -26 -8 -32 -14 -7 -7 -2 -7 17 0 15 6 29 7 32 3 8 -13 -146 -60 -184 -56
-25 3 -30 2 -15 -4 17 -8 15 -10 -13 -15 -35 -7 -44 -27 -13 -27 28 0 145 26
226 50 338 101 442 117 515 80 49 -25 67 -52 82 -121 16 -79 -6 -144 -84 -250
-57 -75 -66 -84 -93 -81 -17 1 -39 2 -49 3 -16 0 -15 4 11 32 34 36 57 76 49
84 -3 3 -21 -11 -40 -31 -20 -20 -42 -36 -50 -36 -8 0 -18 -5 -22 -12 -5 -7
-2 -9 7 -4 8 4 5 0 -5 -8 -15 -12 -43 -16 -107 -16 -83 0 -241 -26 -303 -50
-16 -6 -31 -8 -34 -5 -3 3 1 5 8 5 7 0 11 2 8 5 -8 9 -38 -6 -32 -16 3 -5 -2
-12 -10 -15 -9 -3 -14 -10 -11 -14 2 -4 31 -1 62 7 118 28 231 43 338 43 125
0 162 -14 185 -69 12 -29 15 -31 67 -31 52 0 54 1 47 23 -3 12 -10 28 -14 36
-8 15 25 81 41 81 5 0 9 6 9 13 0 6 14 30 31 52 l31 40 -3 -35 c-1 -19 -1 -74
0 -122 l1 -88 39 0 40 0 -2 182 -2 183 75 42 c41 24 77 43 80 43 3 0 4 -101 2
-225 l-3 -225 42 0 42 0 -6 260 c-4 186 -2 258 5 254 6 -4 8 -2 4 4 -3 6 -1
22 6 37 8 18 14 22 19 13 6 -8 8 -4 7 12 -1 14 -1 40 0 58 l2 33 60 -46 c33
-25 60 -48 60 -51 0 -11 -18 -1 -48 25 -17 17 -32 25 -32 18 0 -17 67 -60 84
-54 20 8 27 -3 15 -25 -9 -17 -8 -18 9 -7 17 11 28 7 75 -24 65 -44 316 -173
360 -186 18 -5 91 -30 162 -55 72 -26 136 -49 142 -51 12 -4 0 -44 -56 -187
l-11 -28 955 0 c525 0 955 3 955 8 0 13 -142 186 -211 255 -60 61 -67 71 -56
88 16 25 47 35 59 18 6 -10 7 -2 3 21 -3 19 -6 43 -6 53 0 15 -3 16 -14 7 -12
-10 -12 -14 1 -27 8 -9 12 -18 9 -22 -4 -3 -12 1 -18 10 -11 15 -14 15 -27 1
-13 -14 -12 -15 3 -9 25 9 21 0 -14 -34 -28 -27 -30 -28 -23 -7 6 21 6 22 -12
8 -10 -8 8 15 41 51 33 37 79 103 103 147 36 69 46 80 66 78 17 -2 23 1 19 11
-4 10 -9 11 -19 2 -20 -17 -17 -5 13 51 19 35 29 46 36 37 5 -8 6 -4 2 9 -3
14 10 56 38 118 37 80 46 94 56 82 15 -18 42 -10 35 9 -4 9 1 13 15 12 14 -1
21 -8 21 -21 0 -11 2 -17 5 -14 3 3 2 25 -2 49 -7 43 -7 43 -14 14 -7 -30 -7
-29 -6 5 1 21 7 34 14 33 8 -2 10 4 6 14 -6 14 -8 14 -20 -3 -7 -10 -13 -28
-13 -40 0 -13 -5 -26 -10 -29 -16 -10 -12 19 10 71 11 26 18 49 16 52 -3 3
-10 -6 -15 -19 -5 -13 -16 -42 -25 -63 -13 -31 -14 -41 -4 -47 7 -4 9 -11 5
-16 -12 -12 -28 19 -22 44 3 11 14 42 25 68 22 50 52 60 58 17 3 -22 22 -32
22 -11 0 16 -36 59 -44 52 -13 -13 -1 23 39 122 4 11 9 25 10 30 2 6 8 30 15
55 12 42 14 43 21 20 6 -18 7 -13 3 15 -3 23 0 54 7 70 16 42 46 166 79 325
22 104 28 125 29 90 1 -29 4 -40 10 -32 5 9 11 0 16 -30 8 -46 10 -44 20 15 3
22 10 35 17 31 6 -4 6 0 -1 14 -12 22 -5 52 11 52 6 0 17 -8 24 -17 7 -10 14
-13 14 -7 0 19 -29 37 -61 37 -21 0 -29 5 -29 19 0 10 5 18 10 18 6 0 10 9 10
20 0 33 -17 22 -24 -15 -5 -25 -2 -42 9 -57 8 -13 15 -38 15 -58 -1 -44 -13
-25 -29 46 -10 41 -9 64 3 125 9 41 16 111 16 157 l0 82 28 -6 c63 -16 165
-53 145 -54 -12 0 -33 4 -47 10 -17 6 -26 6 -26 0 0 -6 6 -10 13 -10 9 0 9 -2
-1 -9 -8 -5 8 -6 40 -4 36 3 49 1 39 -5 -10 -8 -6 -12 18 -17 18 -4 35 -4 38
-1 4 3 -1 6 -9 6 -9 0 -18 7 -22 15 -4 12 0 14 17 10 12 -3 62 -14 112 -24 74
-15 86 -20 70 -29 -11 -6 -16 -14 -12 -18 5 -5 11 -4 15 2 14 20 45 24 109 12
73 -13 64 -25 -22 -29 -45 -2 -42 -3 25 -9 43 -4 81 -3 90 2 10 6 6 7 -15 3
-25 -4 -27 -3 -12 6 13 8 36 6 87 -5 38 -9 80 -16 94 -16 16 0 26 -6 26 -14 0
-8 7 -17 16 -20 12 -4 15 -2 10 9 -24 65 114 -71 193 -189 87 -129 191 -329
179 -342 -2 -2 -28 3 -58 11 -94 25 -150 17 -150 -22 0 -7 11 -13 25 -13 50 0
373 -142 503 -222 77 -47 194 -130 235 -167 l27 -25 0 184 0 183 -113 226
c-112 225 -138 279 -247 526 -112 255 -185 383 -250 440 -12 11 -46 49 -75 85
-29 36 -86 98 -127 138 -42 40 -90 93 -107 118 -28 38 -30 44 -14 44 11 0 27
6 37 13 16 12 3 15 -97 20 -99 5 -125 10 -181 36 -85 38 -185 139 -245 247
-87 156 -107 187 -161 253 -138 164 -244 324 -292 437 -20 49 -47 93 -72 118
-48 48 -123 231 -99 240 22 9 35 7 29 -3 -4 -5 3 -7 15 -4 14 4 17 8 9 13 -8
5 2 12 26 20 22 7 53 23 71 36 17 13 35 24 40 24 4 0 1 -5 -7 -11 -13 -9 -13
-10 0 -6 8 2 15 10 15 17 0 7 6 15 13 18 6 2 12 -1 12 -6 0 -6 9 -8 20 -5 15
4 20 0 20 -15 0 -11 -6 -22 -13 -25 -9 -4 -9 -7 1 -18 10 -11 12 -10 12 4 0 9
5 17 10 17 17 0 11 -74 -10 -107 -10 -17 -28 -37 -39 -43 -12 -6 -21 -17 -21
-26 0 -17 22 -8 56 24 l21 20 5 -96 c5 -89 8 -104 47 -181 23 -46 40 -90 37
-98 -3 -8 -2 -12 3 -9 4 3 13 -11 19 -32 6 -20 29 -64 50 -97 22 -33 38 -65
35 -71 -6 -15 119 -24 172 -11 30 7 29 7 -3 -8 -34 -16 -116 -16 -140 -1 -7 4
-12 2 -12 -3 0 -6 5 -11 11 -11 6 0 9 -9 6 -20 -3 -11 -1 -23 4 -26 5 -3 9 -2
8 3 -6 35 0 39 69 32 37 -3 69 -4 71 -2 2 1 -2 3 -10 3 -8 0 -4 6 9 16 12 8
20 19 17 24 -3 5 6 20 19 33 l25 25 15 -33 c9 -18 16 -36 16 -40 0 -3 7 -13
15 -22 10 -9 13 -23 9 -36 -5 -16 -3 -19 11 -13 11 4 25 0 37 -11 27 -24 124
-24 162 0 14 10 38 42 53 71 25 51 28 54 72 59 48 5 65 -5 56 -34 -8 -23 5
-51 20 -45 17 6 43 -63 51 -136 4 -34 11 -55 16 -51 21 12 -15 179 -54 257
l-20 39 29 -7 c16 -4 23 -3 15 2 -10 6 -8 13 9 28 29 26 48 76 53 140 5 77 19
88 18 14 l-1 -25 7 25 c5 15 17 26 30 28 12 2 22 8 22 13 0 12 -7 11 -30 -1
-13 -7 -19 -6 -24 5 -3 10 9 29 35 52 41 37 40 55 -2 33 -17 -10 -20 -9 -14 1
6 8 4 10 -5 4 -10 -6 -12 -1 -8 18 3 15 0 28 -6 31 -6 2 -1 5 11 5 25 1 40
-15 21 -22 -7 -2 -10 -8 -5 -12 4 -5 13 -2 20 7 14 18 137 34 137 18 0 -6 -21
-11 -47 -11 -33 -2 -39 -3 -19 -6 16 -3 45 -2 63 2 30 5 33 8 21 22 -12 15
-11 15 9 4 19 -9 22 -9 17 2 -3 8 2 17 10 20 11 4 13 1 9 -10 -4 -11 -2 -14 5
-9 7 4 12 13 12 20 0 8 7 19 15 26 28 23 7 23 -42 -1 -41 -21 -63 -24 -155
-24 -58 0 -109 3 -112 6 -4 3 0 21 8 40 11 26 26 39 65 56 47 20 52 20 61 5 9
-15 10 -14 8 4 -4 26 55 79 78 70 11 -4 14 -1 9 12 -3 11 3 29 13 43 10 13 24
38 30 56 9 26 8 31 -4 26 -7 -3 -23 -20 -34 -38 -26 -42 -112 -102 -173 -120
-26 -8 -47 -13 -47 -12 0 1 -2 31 -4 67 -8 134 -35 136 -34 3 1 -136 -35 -220
-88 -207 -32 8 -30 2 10 -38 69 -69 71 -227 5 -283 -36 -30 -69 -40 -105 -31
-20 5 -34 24 -64 89 -21 45 -46 105 -56 132 -25 70 -23 174 5 255 12 35 26
104 31 153 10 104 36 147 104 178 51 23 145 25 207 4 24 -8 100 -26 169 -39
143 -28 256 -66 252 -85 -1 -7 2 -10 8 -6 6 4 25 -4 43 -18 45 -34 65 -105 71
-252 3 -66 15 -194 27 -285 12 -91 22 -181 23 -200 0 -19 3 -37 7 -40 9 -9 28
-130 22 -146 -3 -7 -1 -14 5 -14 12 0 26 -105 16 -122 -4 -7 -7 -29 -5 -48 3
-46 -32 -140 -64 -170 -14 -13 -25 -18 -25 -12 0 7 3 12 8 12 4 0 13 10 21 23
8 14 1 10 -20 -12 -23 -22 -30 -35 -21 -38 16 -6 -29 -43 -52 -43 -9 0 -16 -4
-16 -10 0 -5 -12 -12 -27 -16 -16 -3 -40 -10 -56 -16 -20 -8 -31 -7 -42 2 -9
7 -18 10 -22 6 -3 -3 -1 -6 5 -6 7 0 12 -5 12 -11 0 -16 -154 -6 -174 11 -13
10 -16 10 -16 -1 0 -11 -2 -11 -10 1 -7 11 -12 12 -21 3 -17 -17 -4 -29 45
-42 152 -38 364 18 463 122 26 28 47 55 45 59 -3 12 6 10 34 -9 19 -12 22 -18
12 -24 -18 -12 -30 -11 -23 1 4 6 -3 6 -17 -1 -27 -13 -88 -82 -64 -73 9 4 16
1 16 -6 0 -10 3 -10 15 0 9 7 13 21 10 31 -6 19 10 35 20 19 4 -6 12 -4 22 5
9 9 22 14 29 11 12 -4 14 279 14 1784 l0 1790 -3400 0 -3400 0 0 -3062z m3504
2507 c121 -60 172 -99 251 -192 115 -135 210 -311 256 -477 29 -105 28 -106
-35 -106 -99 0 -222 -64 -307 -159 -63 -70 -64 -89 -1 -29 97 94 215 158 291
158 43 0 111 -35 140 -71 19 -25 94 -230 86 -237 -10 -10 -78 26 -86 45 -20
52 -82 56 -171 10 -35 -18 -83 -41 -108 -51 -25 -11 -60 -31 -78 -44 -48 -35
-99 -39 -157 -13 -26 12 -51 19 -54 16 -3 -3 13 -21 34 -40 38 -33 39 -35 15
-35 -32 0 -43 8 -64 45 -16 29 -16 29 -14 5 3 -30 -3 -34 -42 -25 -37 8 -37
15 -4 55 38 44 24 47 -26 5 -23 -19 -45 -35 -50 -35 -4 0 -11 12 -15 28 -11
46 -64 130 -96 153 -41 29 -140 59 -194 59 -24 0 -66 -5 -93 -11 -47 -10 -52
-9 -101 21 -96 59 -203 75 -278 40 -45 -20 -59 -46 -20 -37 61 15 100 19 132
13 34 -7 50 -26 21 -26 -13 0 -56 -43 -73 -75 -7 -11 -24 -10 -102 6 -52 11
-97 22 -100 24 -14 15 176 339 286 487 141 189 389 423 553 522 58 34 86 31
204 -29z m524 -70 c-3 -3 -9 2 -12 12 -6 14 -5 15 5 6 7 -7 10 -15 7 -18z m42
-55 c6 -11 8 -20 6 -20 -3 0 -10 9 -16 20 -6 11 -8 20 -6 20 3 0 10 -9 16 -20z
m61 -92 c19 -29 39 -59 46 -66 7 -7 13 -19 13 -25 0 -7 10 -23 21 -37 19 -23
20 -23 14 -3 -3 12 -2 24 3 27 5 3 8 -12 6 -33 -2 -22 3 -46 11 -57 10 -13 14
-15 15 -5 0 11 3 11 15 1 17 -14 21 -45 5 -35 -16 10 -11 -20 11 -66 17 -37
20 -39 15 -14 -2 17 -8 39 -11 50 -5 15 -4 17 3 6 8 -11 11 -8 15 15 4 24 5
22 5 -11 2 -75 2 -75 44 -75 21 0 38 -4 38 -10 0 -5 7 -10 15 -10 8 0 15 -4
15 -10 0 -5 7 -10 16 -10 8 0 12 5 9 10 -3 6 3 10 14 10 14 0 21 -6 21 -19 0
-17 10 -20 74 -26 81 -8 86 -12 86 -82 l0 -33 75 0 75 0 0 -40 0 -40 80 0 80
0 0 -40 0 -40 55 0 55 0 0 -40 c0 -36 2 -40 26 -40 25 0 26 -2 22 -50 -2 -35
1 -49 8 -46 7 3 21 -2 32 -9 10 -8 22 -12 26 -10 3 3 4 2 1 -1 -2 -4 3 -13 12
-22 14 -14 14 -17 -3 -24 -14 -6 -10 -7 11 -4 17 3 37 1 44 -3 23 -14 -19 -22
-55 -11 -46 15 -101 -1 -199 -60 -44 -26 -114 -63 -156 -83 -62 -28 -84 -44
-115 -85 -22 -30 -48 -53 -63 -57 -14 -3 -45 -15 -67 -26 -61 -29 -89 -15 -97
48 -4 26 -25 134 -48 238 -106 497 -171 696 -291 889 -57 92 -70 116 -64 116
2 0 19 -24 37 -52z m13 37 c-4 -8 -11 -12 -16 -9 -6 4 -5 10 3 15 19 12 19 11
13 -6z m76 -106 c0 -5 -4 -9 -10 -9 -5 0 -10 7 -10 16 0 8 5 12 10 9 6 -3 10
-10 10 -16z m-1825 -728 c284 -51 495 -101 495 -117 0 -7 -4 -15 -8 -18 -4 -2
-75 13 -157 35 -83 21 -225 56 -317 76 -93 20 -168 40 -168 44 0 7 4 7 155
-20z m708 19 c-23 -10 -32 -30 -12 -30 5 0 7 5 4 10 -3 6 3 10 14 10 12 0 20
-6 19 -12 -2 -7 8 -14 22 -16 18 -2 21 0 11 7 -10 6 -3 8 20 6 19 -2 39 -4 46
-4 7 -1 10 -8 6 -18 -4 -10 -2 -14 4 -10 6 4 17 -1 24 -11 13 -15 12 -16 -3
-3 -22 16 -24 -1 -3 -19 17 -14 21 -35 5 -25 -5 3 -10 -2 -11 -12 0 -14 -2
-15 -6 -3 -3 8 -17 29 -32 45 l-26 30 33 -29 c17 -17 32 -25 32 -19 0 6 -7 16
-15 23 -8 7 -15 19 -15 26 0 10 -6 11 -22 6 -13 -5 -36 -6 -53 -2 -23 4 -34 0
-47 -15 -10 -11 -17 -15 -18 -7 0 6 5 12 12 12 6 0 8 3 5 7 -4 3 -16 -2 -27
-12 -22 -20 -28 -8 -7 14 10 11 9 13 -3 9 -16 -5 -36 -81 -23 -85 5 -2 6 -32
3 -68 -3 -36 -2 -65 2 -65 3 0 10 -9 13 -21 10 -31 69 -53 108 -39 23 8 33 7
39 -2 6 -9 8 -7 7 7 -2 20 30 85 42 85 4 0 10 -12 13 -26 9 -33 -40 -116 -54
-94 -6 9 -30 14 -69 14 -37 1 -54 -2 -44 -8 8 -4 29 -6 46 -3 18 2 37 -2 48
-11 16 -14 15 -17 -19 -35 -20 -11 -40 -24 -43 -29 -4 -6 -24 -7 -50 -3 -35 6
-40 9 -24 15 l20 8 -20 7 c-39 14 -43 13 -48 -6 -12 -47 -97 -36 -161 20 -60
54 -67 63 -63 75 3 7 -3 19 -14 27 -12 8 -19 25 -19 44 0 39 11 54 37 52 12 0
19 -5 17 -9 -3 -5 14 -6 38 -2 58 9 91 39 86 81 -3 25 0 33 16 37 10 3 28 1
38 -5 26 -14 37 17 12 35 -17 13 -17 14 4 25 11 6 33 12 49 12 23 2 20 3 -12
9 -36 6 -33 7 25 8 48 1 59 -2 43 -8z m-120 -7 c-7 -2 -13 -12 -13 -22 0 -18
-18 -41 -33 -41 -4 0 -5 5 -1 11 4 8 -1 9 -17 4 -21 -7 -22 -6 -10 9 7 9 21
16 31 16 10 0 20 7 24 15 3 8 11 15 18 14 10 0 10 -2 1 -6z m190 0 c-7 -2 -19
-2 -25 0 -7 3 -2 5 12 5 14 0 19 -2 13 -5z m-248 -15 c-16 -5 -36 -12 -44 -14
-11 -3 -11 -7 -1 -19 10 -12 9 -15 -8 -15 -64 0 3 56 68 58 8 0 2 -4 -15 -10z
m1138 -42 c22 -17 22 -25 -2 -19 -11 3 -22 11 -25 19 -7 17 4 17 27 0z m-1538
-42 l104 -26 -5 -57 c-16 -151 59 -224 305 -296 69 -20 108 -26 150 -23 91 7
207 76 246 148 30 53 29 53 74 39 22 -7 41 -15 41 -19 0 -4 -11 -20 -25 -36
-14 -16 -40 -58 -58 -93 -71 -143 -14 -221 99 -135 47 36 47 36 63 15 9 -11
30 -23 48 -27 26 -5 37 -1 59 21 24 24 26 32 21 75 -3 27 -17 71 -32 99 -23
46 -23 51 -8 51 12 0 28 -20 46 -54 57 -108 170 -194 284 -215 83 -16 198 12
250 60 l21 21 11 -20 c6 -12 11 -48 11 -82 0 -90 -34 -143 -98 -156 -29 -6
-38 0 -105 65 -40 39 -77 71 -80 71 -4 0 2 -18 13 -41 15 -28 21 -57 20 -92
-2 -73 -3 -73 25 -47 21 20 25 21 25 6 0 -29 -42 -186 -50 -186 -4 0 -13 7
-20 15 -16 19 -60 19 -86 0 -24 -18 -34 -19 -34 0 0 24 -35 37 -64 24 -22 -10
-28 -9 -44 11 -20 25 -75 31 -95 11 -16 -16 -24 -13 -30 9 -8 31 -73 28 -108
-6 -25 -24 -28 -25 -56 -10 -39 19 -105 4 -133 -32 l-20 -25 -21 27 c-29 36
-69 34 -114 -5 -27 -24 -39 -29 -48 -20 -22 22 -77 13 -108 -18 -16 -16 -29
-37 -29 -45 0 -43 -72 3 -143 91 -52 65 -144 220 -135 228 2 2 29 8 61 13 l56
9 26 -39 c14 -21 27 -38 29 -38 3 0 2 24 0 53 l-5 52 86 50 c48 27 83 51 78
52 -5 2 -43 -12 -84 -31 -112 -52 -191 -69 -274 -61 -82 8 -188 41 -285 90
-68 34 -70 36 -70 73 0 70 70 422 92 465 11 21 -1 22 123 -9z m535 -4 c0 -5
-2 -10 -4 -10 -3 0 -8 5 -11 10 -3 6 -1 10 4 10 6 0 11 -4 11 -10z m1015 -43
l30 -7 -25 15 c-33 19 -18 19 28 -1 33 -14 35 -17 17 -24 -17 -7 -16 -9 10 -9
23 -1 26 -4 15 -11 -13 -8 -12 -12 4 -27 18 -17 19 -17 12 2 -5 13 -4 16 2 10
5 -5 12 -22 16 -36 5 -23 0 -21 -45 22 -46 46 -53 49 -94 46 -44 -3 -76 -17
-39 -17 16 0 17 -2 4 -10 -8 -5 -10 -10 -5 -10 6 1 19 7 29 15 11 8 27 15 35
15 9 0 0 -11 -19 -24 -19 -13 -38 -22 -42 -19 -4 2 -5 -2 -2 -10 3 -8 -2 -20
-11 -27 -8 -7 -15 -24 -15 -39 l-1 -26 -14 30 -14 30 6 -34 c4 -21 1 -36 -6
-41 -10 -5 -8 -19 5 -60 14 -43 19 -50 25 -34 7 17 8 17 8 2 1 -10 9 -18 19
-18 14 0 15 -2 2 -10 -11 -7 -6 -10 20 -11 l35 -1 -32 -9 c-18 -5 -33 -11 -33
-14 0 -8 75 9 82 19 5 8 8 7 8 -1 0 -7 8 -13 19 -13 11 0 21 -9 24 -21 5 -18
2 -20 -16 -15 -12 3 -31 6 -42 7 -17 1 -16 2 5 9 24 8 23 8 -7 9 -47 1 -40
-16 12 -32 l45 -13 -31 -18 c-21 -12 -42 -17 -65 -13 -19 3 -32 2 -30 -2 8
-12 -142 15 -159 29 -8 7 -15 9 -15 4 0 -5 -5 -1 -11 9 -6 9 -14 15 -18 12 -5
-2 -17 5 -27 17 -12 14 -14 18 -4 13 12 -7 13 -6 4 6 -14 17 -14 49 -1 49 6 0
18 -7 28 -15 9 -9 45 -31 80 -49 40 -21 63 -40 63 -50 -1 -13 7 -15 44 -11 25
3 48 7 51 11 3 3 -11 4 -31 1 -39 -5 -68 14 -68 44 0 8 -9 20 -21 27 l-21 13
23 20 c18 15 25 17 32 7 6 -10 7 -8 4 3 -3 10 -11 35 -18 58 -7 23 -16 41 -21
41 -11 0 -10 38 2 45 6 4 10 -5 10 -20 0 -14 4 -24 10 -20 6 4 6 15 0 31 -15
38 -12 44 19 44 17 0 33 5 37 12 5 7 0 9 -14 6 -13 -4 -23 0 -26 8 -3 8 0 14
6 14 6 0 9 2 6 5 -13 13 -37 -10 -42 -41 -4 -19 -11 -34 -15 -34 -5 0 -11 -9
-14 -20 -7 -28 -37 -26 -37 3 0 18 2 19 11 7 7 -12 9 -8 7 15 -2 25 -7 30 -26
27 -20 -2 -22 1 -16 20 9 29 20 36 54 34 21 -2 26 2 22 13 -3 9 -1 12 6 7 8
-5 10 -2 6 9 -5 13 -9 13 -22 3 -8 -7 -33 -21 -56 -30 -22 -9 -35 -17 -28 -17
6 -1 12 -5 12 -10 0 -5 -15 -8 -34 -7 -25 2 -33 0 -29 -10 6 -16 19 -18 28 -4
4 6 15 2 27 -10 29 -27 22 -29 -37 -9 -27 10 -44 18 -37 18 7 1 11 5 7 10 -3
5 -1 12 5 16 6 4 8 11 4 16 -3 5 0 8 7 7 7 -2 13 3 14 10 0 17 25 31 43 24 9
-3 13 -1 9 4 -5 9 11 14 60 18 11 0 19 4 17 8 -8 12 90 14 111 2 11 -6 34 -14
50 -17z m-798 -46 c-2 -41 -4 -46 -13 -30 -5 11 -13 16 -17 13 -4 -4 -7 -3 -7
3 0 6 7 13 15 17 8 3 15 15 15 26 0 11 2 20 5 20 2 0 3 -22 2 -49z m2000 37
c-2 -7 0 -22 6 -33 10 -20 9 -20 -11 -1 -16 14 -18 21 -9 32 15 17 20 17 14 2z
m-2050 -60 c-3 -8 -6 -5 -6 6 -1 11 2 17 5 13 3 -3 4 -12 1 -19z m1956 8 c18
-8 59 -40 92 -70 57 -52 59 -55 33 -56 -44 0 -121 -30 -150 -57 -33 -32 -57
-80 -66 -136 -6 -33 -12 -43 -30 -45 -19 -3 -22 1 -22 30 0 18 -4 39 -9 47
-13 20 -32 3 -25 -23 26 -104 -138 -256 -275 -256 -40 0 -82 34 -95 77 -6 18
-2 22 23 28 17 4 50 6 73 5 24 -1 49 -1 55 -1 15 1 46 58 40 74 -3 7 -9 0 -15
-15 -6 -14 -16 -29 -23 -33 -13 -9 -151 -13 -146 -5 2 3 11 23 21 45 33 75
104 108 148 68 24 -22 36 -8 14 16 -23 25 -60 31 -92 14 -15 -7 -28 -12 -30
-10 -1 1 4 17 13 34 29 61 76 104 145 133 37 15 84 41 105 58 43 33 152 92
171 92 7 0 27 -6 45 -14z m141 -11 c3 -8 11 -15 17 -15 8 0 8 4 -1 15 -10 12
-9 15 4 15 10 0 14 -4 11 -10 -3 -5 0 -10 7 -10 8 0 5 -5 -6 -11 -14 -9 -23
-7 -39 10 -12 11 -16 21 -10 21 6 0 13 -7 17 -15z m73 9 c-3 -3 -12 -4 -19 -1
-8 3 -5 6 6 6 11 1 17 -2 13 -5z m33 -4 c0 -5 -10 -15 -22 -21 -23 -12 -23
-12 -4 10 21 23 26 26 26 11z m-1900 -49 c69 -16 159 -37 200 -47 82 -18 96
-25 87 -47 -5 -12 -14 -13 -44 -6 -203 46 -389 93 -396 99 -11 10 2 39 16 35
7 -2 68 -17 137 -34z m204 24 c-6 -16 -24 -21 -24 -7 0 11 11 22 21 22 5 0 6
-7 3 -15z m1700 -20 c-4 -15 -2 -25 5 -25 6 0 8 -7 5 -15 -4 -8 -1 -15 5 -15
5 0 25 -13 44 -30 24 -21 40 -28 58 -24 19 5 21 3 9 -5 -12 -9 -11 -11 10 -12
23 0 23 -1 5 -8 -20 -8 -79 25 -135 76 -14 13 -28 23 -31 23 -10 0 -52 40 -47
45 2 3 14 -4 26 -15 22 -21 37 -27 27 -10 -3 5 0 16 7 24 18 21 19 20 12 -9z
m-4144 -55 c0 -5 -8 -10 -17 -10 -15 0 -16 2 -3 10 19 12 20 12 20 0z m2887
-30 c3 -11 8 -8 19 13 8 15 16 27 17 27 8 0 4 -70 -4 -70 -6 0 -7 6 -4 13 4 6
0 4 -8 -5 -19 -23 -37 -4 -36 37 0 16 3 23 6 15 2 -8 7 -22 10 -30z m-266 -10
c5 0 14 -12 20 -27 8 -22 6 -30 -13 -50 -17 -18 -29 -22 -53 -18 -25 5 -22 2
14 -15 24 -11 41 -23 38 -27 -7 -7 -93 34 -115 55 -17 15 -46 12 -48 -6 -1 -6
-2 -17 -3 -23 0 -6 -6 -5 -13 3 -19 20 -40 59 -35 64 3 4 73 -16 108 -30 12
-5 22 4 38 36 12 26 21 35 21 24 0 -11 -7 -28 -17 -38 -21 -23 -8 -38 14 -16
9 9 17 34 18 55 3 46 6 54 12 31 2 -10 9 -18 14 -18z m1609 20 c0 -5 -2 -10
-4 -10 -3 0 -8 5 -11 10 -3 6 -1 10 4 10 6 0 11 -4 11 -10z m-1307 -74 c-3
-13 -14 -26 -24 -29 -15 -4 -19 0 -19 19 0 25 15 33 23 12 3 -8 6 -6 6 5 1 9
5 17 10 17 4 0 6 -11 4 -24z m1200 -3 c31 -9 57 -19 57 -22 -1 -13 -51 -42
-61 -35 -7 4 -10 1 -7 -7 3 -8 -3 -30 -13 -50 -20 -40 -40 -167 -27 -175 4 -3
8 -59 8 -125 0 -115 -1 -119 -19 -109 -44 23 -54 6 -18 -31 20 -20 24 -36 26
-94 3 -98 28 -193 69 -267 25 -43 15 -69 -37 -103 -93 -58 -156 -6 -165 134
-1 30 31 41 82 30 36 -8 52 -24 79 -81 20 -41 49 -54 37 -15 -20 66 -49 98
-106 116 -46 15 -76 7 -105 -27 -16 -19 -23 -22 -23 -11 0 8 -16 48 -36 87
-58 119 -81 293 -51 382 11 32 15 35 48 32 20 -2 56 -10 80 -18 42 -14 42 -14
9 -11 -19 3 -51 -2 -70 -9 -32 -13 -32 -14 -5 -8 17 4 37 6 45 5 40 -5 65 -2
68 7 2 7 14 7 34 1 17 -4 28 -6 25 -2 -4 3 0 15 8 27 8 11 15 35 15 53 0 31
-3 33 -52 48 -29 8 -80 21 -113 28 l-60 14 3 74 c4 83 20 117 66 145 72 44
102 47 209 17z m230 20 c-7 -2 -21 -2 -30 0 -10 3 -4 5 12 5 17 0 24 -2 18 -5z
m-2616 -27 c-4 -10 3 -16 21 -19 18 -3 13 -4 -16 -6 -40 -1 -41 0 -30 19 15
23 33 27 25 6z m1130 -3 c-11 -11 14 -32 31 -26 11 3 13 2 6 -4 -6 -4 -16 -18
-23 -30 -6 -13 -17 -23 -24 -23 -7 0 -6 4 3 10 13 8 12 10 -2 10 -10 0 -18 5
-18 10 0 6 -7 10 -16 10 -10 0 -6 8 13 25 25 22 47 35 30 18z m1643 -13 c0 -5
-2 -10 -4 -10 -3 0 -8 5 -11 10 -3 6 -1 10 4 10 6 0 11 -4 11 -10z m-1265 -89
c54 -15 101 -33 103 -40 2 -6 -4 -11 -13 -11 -17 0 -336 89 -344 96 -2 2 1 10
8 17 9 12 22 11 79 -10 37 -13 112 -36 167 -52z m1150 33 c58 -15 105 -30 105
-35 0 -5 -4 -9 -10 -9 -5 0 -10 -5 -10 -12 0 -7 6 -5 18 4 11 11 24 13 37 8
19 -8 19 -9 1 -9 -11 -1 -31 -11 -44 -23 -14 -13 -22 -17 -18 -10 4 6 2 12 -4
12 -7 0 -9 -7 -6 -16 3 -9 -2 -28 -13 -42 -20 -30 -37 -95 -47 -186 -5 -41 -9
-54 -16 -45 -7 10 -8 5 -4 -14 4 -15 3 -33 -1 -40 -9 -14 -12 -28 -20 -84 -5
-37 -8 -41 -24 -33 -16 9 -17 6 -13 -40 2 -27 9 -60 14 -72 9 -19 10 -17 6 15
-3 20 -1 35 3 32 5 -2 11 -25 14 -49 4 -25 16 -72 27 -105 11 -33 17 -67 14
-76 -4 -9 2 -25 12 -36 15 -16 16 -24 6 -39 -10 -17 -9 -18 6 -14 14 5 15 4 2
-5 -12 -8 -12 -13 -2 -23 9 -9 12 -9 13 5 1 9 2 23 4 30 1 6 -7 27 -17 46 -28
49 -14 50 15 0 48 -80 21 -163 -61 -190 -29 -10 -38 -9 -61 8 -29 21 -83 124
-72 136 4 4 23 10 42 13 28 5 41 1 66 -20 17 -14 36 -39 43 -56 12 -29 30 -41
30 -19 0 6 -7 26 -16 45 -13 27 -14 37 -4 49 7 8 8 15 3 15 -5 0 -15 11 -21
25 -6 14 -16 25 -22 25 -7 0 -4 -7 4 -16 32 -32 15 -48 -35 -33 -26 8 -43 8
-69 -3 l-35 -15 -39 71 c-70 126 -76 169 -69 469 7 317 13 338 110 373 49 17
38 18 158 -12z m278 -1 c-7 -2 -19 -2 -25 0 -7 3 -2 5 12 5 14 0 19 -2 13 -5z
m-4746 -75 c-3 -8 -6 -5 -6 6 -1 11 2 17 5 13 3 -3 4 -12 1 -19z m-10 -50 c-3
-8 -6 -5 -6 6 -1 11 2 17 5 13 3 -3 4 -12 1 -19z m3347 -14 c17 -16 22 -34 29
-101 5 -45 30 -85 64 -104 15 -8 35 -47 65 -127 36 -98 51 -124 95 -173 29
-31 60 -76 68 -99 21 -61 99 -212 136 -266 17 -26 60 -77 95 -114 47 -50 63
-73 58 -86 -5 -16 -4 -16 5 -4 10 13 15 8 12 -12 0 -5 3 -8 8 -8 9 0 21 -24
106 -204 47 -101 113 -192 169 -234 17 -13 30 -28 28 -33 -1 -6 2 -8 7 -5 5 3
32 -5 60 -19 27 -14 83 -34 123 -44 l73 -19 -120 3 c-108 3 -117 2 -90 -11 19
-8 24 -13 13 -14 -29 0 -22 -37 8 -44 35 -9 28 -14 -37 -25 l-54 -10 71 4 c39
3 85 8 102 11 19 4 32 2 32 -4 0 -5 -41 -13 -92 -17 -51 -4 -187 -18 -303 -31
-221 -26 -498 -35 -629 -20 -61 8 -80 15 -159 67 -49 33 -95 59 -103 59 -18 0
-18 13 1 92 19 86 60 337 79 488 32 259 39 395 40 752 1 380 2 390 40 352z
m626 -75 c69 -16 129 -34 134 -39 22 -22 -10 -21 -121 4 -179 40 -193 44 -186
62 4 10 13 14 27 10 11 -4 77 -20 146 -37z m-2601 -169 c40 -75 69 -206 81
-373 6 -73 12 -146 15 -163 7 -39 49 -79 100 -93 50 -14 176 -14 235 0 30 7
46 7 48 0 2 -6 13 -25 25 -43 27 -40 82 -51 104 -22 12 17 14 17 33 -4 27 -28
51 -28 83 2 25 23 26 24 43 5 24 -27 73 -24 105 5 l27 25 23 -25 c26 -28 46
-30 77 -9 19 14 24 14 47 -1 23 -15 27 -15 49 0 14 9 32 13 41 10 8 -4 28 -2
43 4 15 6 45 12 68 15 l40 5 -13 -62 c-9 -40 -11 -91 -7 -148 8 -109 -7 -180
-45 -209 -24 -20 -32 -21 -116 -13 -49 5 -186 7 -302 6 l-213 -4 -111 52
c-142 65 -224 87 -374 99 -168 15 -180 18 -220 62 -66 73 -80 113 -76 209 3
47 5 157 5 245 0 159 0 160 -37 269 -21 60 -34 113 -30 117 17 16 187 99 203
99 11 0 29 -23 49 -60z m-1422 8 c-3 -8 -6 -5 -6 6 -1 11 2 17 5 13 3 -3 4
-12 1 -19z m-10 -80 c-3 -8 -6 -5 -6 6 -1 11 2 17 5 13 3 -3 4 -12 1 -19z
m2427 -31 c24 -18 34 -169 14 -207 -20 -38 -60 -38 -92 0 -22 27 -26 41 -26
97 0 58 3 67 29 94 33 32 48 35 75 16z m490 -84 c-26 -48 -74 -155 -105 -238
-41 -107 -59 -144 -64 -130 -3 11 -12 32 -19 46 -11 22 -11 37 2 90 17 75 13
66 77 160 55 80 142 176 151 166 4 -3 -15 -46 -42 -94z m-352 37 c11 -21 18
-58 18 -93 0 -48 -4 -62 -25 -82 -29 -30 -39 -31 -65 -5 -18 18 -19 28 -13
112 3 51 11 96 17 101 22 15 51 1 68 -33z m-292 20 c26 -14 34 -67 20 -121
-14 -53 -36 -79 -65 -79 -51 0 -96 109 -67 162 24 42 73 59 112 38z m-167 -46
c10 -20 20 -62 24 -94 6 -57 5 -59 -21 -66 -14 -3 -33 -4 -41 0 -19 7 -52 61
-67 108 -15 51 8 88 55 88 28 0 36 -5 50 -36z m557 17 c24 -46 0 -181 -32
-181 -33 1 -41 16 -28 54 6 20 11 56 10 79 -2 23 -2 48 -1 55 2 19 39 14 51
-7z m135 -21 c16 -51 -46 -154 -89 -148 -23 3 -23 8 -11 93 10 63 19 75 61 75
24 0 34 -5 39 -20z m-870 3 c20 -7 65 -98 65 -130 0 -42 -57 -27 -117 30 -38
36 -41 59 -13 87 21 21 37 24 65 13z m2560 -13 c3 -5 1 -10 -4 -10 -6 0 -11 5
-11 10 0 6 2 10 4 10 3 0 8 -4 11 -10z m408 -7 c-7 -2 -13 -12 -13 -21 0 -14
2 -14 9 -3 6 10 12 3 21 -24 10 -31 10 -40 -2 -51 -12 -12 -14 -9 -12 23 3 34
2 35 -4 8 -7 -28 -8 -27 -18 23 -10 50 -10 52 10 51 12 0 15 -3 9 -6z m-4916
-85 c-3 -7 -5 -2 -5 12 0 14 2 19 5 13 2 -7 2 -19 0 -25z m-10 -150 c-2 -13
-4 -3 -4 22 0 25 2 35 4 23 2 -13 2 -33 0 -45z m2359 -100 c9 -30 -5 -104 -24
-128 -28 -33 -58 -33 -87 2 -22 26 -26 39 -23 87 l3 56 45 5 c59 7 78 2 86
-22z m2206 10 c-7 -7 -12 -8 -12 -2 0 14 12 26 19 19 2 -3 -1 -11 -7 -17z
m-2383 -2 c16 -19 17 -131 2 -150 -35 -42 -79 3 -88 90 -5 50 -4 54 18 63 34
14 55 13 68 -3z m295 -29 c4 -24 5 -50 2 -58 -2 -8 -7 -26 -10 -41 -9 -39 -46
-38 -69 1 -17 29 -24 121 -10 134 3 4 23 7 44 7 36 0 37 -1 43 -43z m104 -28
c-4 -48 -11 -76 -22 -87 -16 -16 -19 -15 -37 7 -14 17 -19 39 -19 87 l0 64 41
0 42 0 -5 -71z m80 14 c3 -59 -10 -93 -37 -93 -27 0 -29 6 -19 68 13 78 15 84
35 80 14 -2 19 -15 21 -55z m89 -16 c5 -39 2 -47 -17 -57 -38 -21 -50 -7 -43
52 3 29 10 59 16 66 17 21 38 -9 44 -61z m-724 35 c30 -33 48 -89 37 -117 -13
-34 -42 -32 -74 6 -25 30 -34 77 -20 113 8 21 37 20 57 -2z m2807 -103 c0 -5
-4 -9 -10 -9 -5 0 -10 7 -10 16 0 8 5 12 10 9 6 -3 10 -10 10 -16z m-4851 -63
c-22 -20 -23 -20 -6 0 9 11 18 29 18 40 1 18 2 18 6 0 3 -11 -4 -27 -18 -40z
m-49 -62 c0 -8 -19 -13 -24 -6 -3 5 1 9 9 9 8 0 15 -2 15 -3z m-72 -84 c-7
-10 -14 -17 -17 -15 -4 4 18 35 25 35 2 0 -1 -9 -8 -20z m-58 -75 c-7 -9 -15
-13 -19 -10 -3 3 1 10 9 15 21 14 24 12 10 -5z m-99 -122 c33 -71 81 -173 106
-228 25 -55 58 -126 74 -159 16 -32 29 -60 29 -62 0 -2 -11 -4 -26 -4 -21 0
-29 9 -50 58 -25 55 -45 98 -101 220 -114 249 -132 302 -102 302 5 0 37 -57
70 -127z m7 102 c-3 -3 -9 2 -12 12 -6 14 -5 15 5 6 7 -7 10 -15 7 -18z m-84
-171 c3 -8 2 -12 -4 -9 -6 3 -10 10 -10 16 0 14 7 11 14 -7z m5966 -64 c0 -5
-4 -10 -10 -10 -5 0 -10 5 -10 10 0 6 5 10 10 10 6 0 10 -4 10 -10z m-4339
-193 l307 -14 57 -49 57 -49 -49 -7 c-69 -9 -804 -31 -875 -26 -33 2 -63 9
-66 14 -10 13 -87 49 -162 75 -62 21 -75 22 -302 16 -145 -3 -245 -10 -258
-17 -17 -9 -24 -7 -40 12 -11 13 -19 32 -20 43 0 20 6 20 522 18 288 -2 661
-9 829 -16z m-1481 -47 c0 -26 -73 -70 -116 -70 -35 0 -36 1 -30 30 5 30 5 30
-39 30 -39 0 -47 -4 -57 -26 -12 -26 -14 -26 -80 -21 -82 7 -82 -9 0 -19 31
-4 60 -11 63 -17 4 -5 52 -9 109 -8 72 0 110 -4 130 -14 16 -8 42 -15 58 -15
21 0 35 -8 47 -26 l17 -27 -106 8 c-68 4 -106 3 -106 -3 0 -5 -16 -12 -35 -14
-30 -3 -34 -1 -30 13 7 21 1 25 -54 34 l-44 7 23 -33 c13 -19 42 -56 65 -84
23 -27 58 -76 80 -107 21 -32 41 -58 45 -58 3 0 12 17 19 37 15 41 120 153
144 153 7 0 20 -18 27 -39 11 -35 11 -42 -7 -68 -60 -86 -67 -172 -24 -267 47
-105 147 -193 258 -230 l65 -21 82 -157 c45 -86 90 -165 99 -176 9 -10 17 -23
17 -29 0 -6 3 -13 8 -15 4 -1 20 -22 36 -45 16 -24 34 -43 40 -43 8 0 8 2 0 8
-7 4 -27 34 -45 67 -18 33 -37 63 -43 67 -6 4 -8 8 -4 8 4 0 -44 102 -107 227
-62 125 -111 231 -109 235 8 12 41 9 51 -4 6 -7 40 -80 77 -163 37 -82 78
-170 91 -195 13 -25 38 -73 55 -107 63 -129 39 -49 -34 111 -20 43 -36 85 -36
93 0 8 -5 11 -12 7 -6 -4 -8 -3 -5 3 4 6 -4 36 -18 67 -28 63 -30 76 -13 76
21 0 77 50 92 83 64 138 36 308 -68 413 -71 70 -143 97 -248 92 -57 -2 -79 0
-83 10 -2 7 5 17 18 22 21 8 21 9 -5 9 -30 1 -51 29 -38 51 7 11 64 12 326 7
272 -5 323 -9 361 -24 23 -10 43 -21 43 -24 0 -3 -46 -4 -102 -2 -57 2 -130 0
-163 -5 -55 -7 -47 -9 95 -15 273 -12 533 -16 448 -8 -42 5 -88 11 -103 15
-30 8 -95 47 -95 59 0 4 88 7 196 7 221 0 575 16 767 34 70 6 127 9 127 6 0
-3 -16 -21 -35 -40 -19 -19 -35 -38 -35 -42 0 -5 13 -16 30 -26 l29 -18 -59
-75 c-33 -41 -65 -73 -71 -71 -6 1 -8 -2 -5 -7 8 -12 -111 -161 -129 -161 -8
0 -15 2 -15 5 0 2 44 59 98 127 123 154 119 148 88 148 -19 0 -30 -9 -42 -32
-10 -18 -22 -37 -29 -43 -28 -23 -290 -388 -319 -445 -5 -8 8 2 28 22 20 20
36 40 36 43 0 13 93 119 106 121 8 1 14 0 14 -3 0 -2 -28 -40 -62 -83 -35 -43
-99 -124 -143 -180 -44 -56 -117 -148 -161 -204 -152 -191 -361 -471 -383
-511 -11 -22 -21 -46 -21 -53 0 -8 -3 -12 -7 -10 -65 33 -123 54 -195 72 -48
11 -88 24 -88 27 0 22 176 25 227 4 19 -8 41 -15 48 -15 7 0 34 29 59 64 46
64 55 83 36 71 -6 -3 -7 1 -3 10 4 11 8 13 13 5 10 -16 64 65 54 82 -4 7 -4
10 1 6 8 -8 35 9 35 22 0 4 -26 -5 -57 -20 -32 -15 -89 -37 -127 -49 -129 -40
-306 -22 -437 44 -54 28 -58 25 -29 -23 33 -54 23 -50 -45 18 -36 35 -65 61
-65 56 0 -4 33 -49 73 -100 75 -93 113 -146 105 -146 -3 0 -32 34 -64 76 -32
43 -63 82 -69 88 -28 29 -159 202 -171 225 -8 14 -14 22 -14 18 0 -11 -205
241 -250 307 -8 13 -32 42 -52 67 -57 67 -232 291 -253 322 -31 48 -9 29 36
-30 23 -32 45 -60 49 -63 3 -3 34 -40 69 -83 121 -150 75 -51 -76 163 -49 69
-99 142 -112 163 -13 22 -30 37 -42 37 -24 0 -24 -17 1 -55 33 -50 22 -63 -17
-20 -91 102 -204 250 -201 264 4 21 150 49 288 56 58 2 128 8 155 13 43 7 52
6 68 -11 9 -11 17 -27 17 -37z m4927 -2 c16 -18 40 -45 55 -60 14 -15 23 -28
18 -28 -4 0 -27 23 -51 51 -24 28 -53 55 -64 59 -17 7 -17 9 -3 9 10 1 30 -13
45 -31z m-37 -13 c4 3 6 -5 2 -17 -5 -21 -6 -21 -13 -2 -4 10 -7 26 -7 34 0
10 2 9 5 -3 2 -9 8 -15 13 -12z m-4200 -36 c52 -23 97 -44 100 -47 3 -2 -76
-2 -175 2 -99 3 -218 6 -265 6 -92 0 -93 6 -10 38 165 63 210 64 350 1z m4078
21 c28 0 9 -18 -23 -22 -29 -3 -35 -1 -35 15 0 15 5 18 23 13 12 -3 28 -6 35
-6z m156 -9 c3 -5 -1 -11 -9 -14 -9 -4 -12 -1 -8 9 6 16 10 17 17 5z m-4899
-21 c4 -6 -9 -10 -32 -9 -30 0 -34 2 -18 9 27 12 43 12 50 0z m4838 -17 c-7
-2 -19 -2 -25 0 -7 3 -2 5 12 5 14 0 19 -2 13 -5z m-4689 -65 c24 -34 20 -50
-11 -46 -19 2 -30 12 -40 36 -13 31 -12 32 11 32 14 0 32 -10 40 -22z m38 -84
c10 -21 9 -27 -3 -35 -22 -14 -27 -11 -44 21 -20 38 -19 40 10 40 18 0 29 -8
37 -26z m268 -88 c55 -38 115 -100 135 -142 28 -57 32 -179 9 -245 -19 -51
-76 -115 -94 -104 -5 3 -21 27 -35 54 -32 57 -63 76 -100 59 -28 -13 -31 -31
-10 -68 36 -63 -7 -67 -94 -9 -106 71 -181 176 -181 255 0 126 76 218 193 233
68 9 133 -3 177 -33z m3674 -721 c-4 -8 -8 -15 -10 -15 -2 0 -4 7 -4 15 0 8 4
15 10 15 5 0 7 -7 4 -15z m-3000 -320 c-4 -8 -11 -15 -16 -15 -6 0 -5 6 2 15
7 8 14 15 16 15 2 0 1 -7 -2 -15z m-990 -105 c27 -22 42 -40 35 -40 -7 0 -23
10 -35 21 -21 19 -24 20 -39 6 -18 -19 -1 -35 20 -17 9 7 15 8 20 0 3 -5 0
-12 -7 -14 -13 -5 -166 -36 -175 -36 -2 0 -2 24 1 53 6 51 6 51 -9 23 -8 -15
-12 -33 -8 -39 3 -6 1 -7 -5 -3 -6 3 -16 -3 -22 -14 -7 -13 -7 -20 0 -20 5 0
10 8 10 17 0 19 13 10 16 -11 1 -8 -7 -16 -17 -19 -10 -3 -19 0 -20 6 0 8 -2
8 -6 0 -2 -7 -9 -13 -14 -13 -5 0 12 33 37 73 25 39 53 84 62 98 l16 26 46
-29 c25 -16 68 -46 94 -68z m533 -46 c2 -7 -6 -10 -21 -7 -14 3 -23 10 -20 15
8 12 36 6 41 -8z m-412 -424 c-28 -12 -37 -12 -30 0 3 6 16 10 28 9 21 0 21
-1 2 -9z"/>
<path d="M3080 5442 c25 -20 89 -79 144 -130 54 -51 101 -91 103 -88 11 11
-53 103 -106 154 -57 54 -136 102 -168 102 -13 0 -4 -12 27 -38z"/>
<path d="M4560 5585 c0 -11 11 -15 40 -15 29 0 40 4 40 15 0 11 -11 15 -40 15
-29 0 -40 -4 -40 -15z"/>
<path d="M4358 5535 c5 -51 19 -67 18 -21 -1 19 -4 32 -8 30 -4 -2 -8 4 -11
13 -2 10 -2 0 1 -22z"/>
<path d="M4386 5517 c3 -10 9 -15 12 -12 3 3 0 11 -7 18 -10 9 -11 8 -5 -6z"/>
<path d="M4431 5234 c0 -11 3 -14 6 -6 3 7 2 16 -1 19 -3 4 -6 -2 -5 -13z"/>
<path d="M5050 5188 c0 -4 7 -8 15 -8 8 0 15 4 15 8 0 5 -7 9 -15 9 -8 0 -15
-4 -15 -9z"/>
<path d="M5139 5156 c-8 -6 -18 -19 -22 -29 -5 -15 -2 -16 21 -11 38 9 47 20
30 37 -11 11 -18 12 -29 3z"/>
<path d="M5037 5113 c-12 -19 8 -29 33 -16 14 7 20 13 13 13 -6 0 -18 3 -26 6
-8 3 -17 1 -20 -3z"/>
<path d="M2940 5149 c0 -5 5 -7 10 -4 6 3 10 8 10 11 0 2 -4 4 -10 4 -5 0 -10
-5 -10 -11z"/>
<path d="M2940 5119 c0 -6 -9 -22 -20 -36 -11 -15 -18 -28 -15 -31 3 -3 12 4
21 16 8 12 19 20 24 17 4 -3 7 6 6 20 -1 24 -16 37 -16 14z"/>
<path d="M2998 5063 c-5 -29 4 -103 13 -103 5 0 9 27 9 60 0 55 -14 83 -22 43z"/>
<path d="M2940 5060 c0 -5 5 -10 11 -10 5 0 7 5 4 10 -3 6 -8 10 -11 10 -2 0
-4 -4 -4 -10z"/>
<path d="M2850 5035 c7 -9 10 -18 7 -22 -4 -3 -13 0 -22 7 -26 22 -15 -4 19
-44 21 -24 36 -35 40 -27 4 6 1 11 -7 11 -9 0 -14 11 -15 28 -2 50 -5 62 -20
62 -12 0 -12 -3 -2 -15z"/>
<path d="M2880 5028 c0 -21 19 -22 62 -4 11 5 18 2 21 -11 4 -17 4 -17 12 0
10 23 9 23 -47 29 -43 5 -48 3 -48 -14z"/>
<path d="M3231 4972 c-13 -25 2 -38 19 -16 9 10 10 18 3 25 -8 8 -14 5 -22 -9z"/>
<path d="M3035 4961 c-3 -5 -1 -12 5 -16 5 -3 10 1 10 9 0 18 -6 21 -15 7z"/>
<path d="M2914 4946 c-19 -15 -19 -15 1 -30 24 -18 39 -21 29 -4 -4 7 -3 8 4
4 7 -4 12 -13 12 -21 0 -13 29 -29 38 -20 3 3 0 5 -6 5 -7 0 -12 7 -12 16 0
21 -27 47 -35 34 -8 -13 -25 -13 -25 0 0 6 10 15 23 20 13 5 16 9 6 9 -8 1
-24 -5 -35 -13z"/>
<path d="M3068 4894 c6 -3 10 -9 7 -13 -2 -5 7 -6 21 -3 30 5 28 7 -11 15 -16
4 -24 4 -17 1z"/>
<path d="M3155 4880 c-3 -5 1 -10 9 -10 9 0 16 5 16 10 0 6 -4 10 -9 10 -6 0
-13 -4 -16 -10z"/>
<path d="M3100 4866 c0 -2 11 -6 25 -8 13 -3 22 -1 19 3 -5 9 -44 13 -44 5z"/>
<path d="M3980 5100 c0 -12 8 -12 35 0 18 8 17 9 -7 9 -16 1 -28 -3 -28 -9z"/>
<path d="M3800 5070 c-9 -6 -10 -10 -3 -10 6 0 15 5 18 10 8 12 4 12 -15 0z"/>
<path d="M4070 4690 c-9 -6 -10 -10 -3 -10 6 0 15 5 18 10 8 12 4 12 -15 0z"/>
<path d="M3901 4844 c0 -11 3 -14 6 -6 3 7 2 16 -1 19 -3 4 -6 -2 -5 -13z"/>
<path d="M3730 4810 c6 -11 12 -20 13 -20 2 0 3 9 3 20 0 11 -6 20 -13 20 -11
0 -11 -5 -3 -20z"/>
<path d="M5362 4720 c-7 -11 -8 -20 -3 -20 9 0 24 30 18 36 -1 2 -8 -6 -15
-16z"/>
<path d="M5163 4443 c9 -2 23 -2 30 0 6 3 -1 5 -18 5 -16 0 -22 -2 -12 -5z"/>
<path d="M5110 4430 c0 -5 7 -7 15 -4 8 4 15 8 15 10 0 2 -7 4 -15 4 -8 0 -15
-4 -15 -10z"/>
<path d="M5286 4411 c-4 -5 3 -7 14 -4 23 6 26 13 6 13 -8 0 -17 -4 -20 -9z"/>
<path d="M5340 4335 c0 -8 5 -15 10 -15 6 0 10 7 10 15 0 8 -4 15 -10 15 -5 0
-10 -7 -10 -15z"/>
<path d="M5327 4253 c-4 -3 -6 -27 -6 -52 l2 -46 7 50 c8 53 7 59 -3 48z"/>
<path d="M5340 4096 c0 -8 4 -17 9 -20 5 -4 7 3 4 14 -6 23 -13 26 -13 6z"/>
<path d="M5325 4060 c3 -5 11 -10 16 -10 6 0 7 5 4 10 -3 6 -11 10 -16 10 -6
0 -7 -4 -4 -10z"/>
<path d="M5353 4024 c-8 -8 -9 -15 -3 -19 6 -3 10 0 10 7 1 7 7 0 15 -17 12
-25 14 -26 9 -5 -11 42 -17 50 -31 34z"/>
<path d="M5716 4635 c-13 -10 -16 -19 -10 -25 5 -5 13 0 21 16 6 13 10 24 10
24 -1 0 -11 -7 -21 -15z"/>
<path d="M5690 4575 c-7 -9 -8 -15 -2 -15 5 0 12 7 16 15 3 8 4 15 2 15 -2 0
-9 -7 -16 -15z"/>
<path d="M5657 4445 c-4 -22 -9 -53 -11 -70 -3 -16 -9 -52 -15 -80 -5 -27 -6
-53 -2 -57 3 -4 7 0 7 10 1 9 4 31 7 47 23 105 28 140 25 163 -3 23 -5 21 -11
-13z"/>
<path d="M5601 4124 c0 -11 3 -14 6 -6 3 7 2 16 -1 19 -3 4 -6 -2 -5 -13z"/>
<path d="M5617 4050 c5 -53 17 -90 29 -90 4 0 3 8 -1 18 -4 9 -14 42 -21 72
l-13 55 6 -55z"/>
<path d="M5641 4048 c0 -15 3 -29 9 -33 5 -3 7 -12 3 -20 -3 -8 0 -15 6 -15
13 0 15 22 2 36 -5 5 -11 20 -14 34 -4 25 -4 25 -6 -2z"/>
<path d="M5735 3790 c-4 -12 -5 -24 -2 -27 3 -2 8 5 12 17 4 12 5 24 2 27 -3
2 -8 -5 -12 -17z"/>
<path d="M5446 3051 c-4 -5 3 -7 14 -4 23 6 26 13 6 13 -8 0 -17 -4 -20 -9z"/>
<path d="M5500 3020 c-13 -8 -12 -10 3 -10 9 0 17 5 17 10 0 12 -1 12 -20 0z"/>
<path d="M5526 3005 c-8 -21 20 -30 47 -16 19 10 17 10 -13 5 -31 -6 -33 -5
-21 10 7 9 9 16 3 16 -5 0 -13 -7 -16 -15z"/>
<path d="M5593 2982 c-7 -4 6 -8 30 -9 31 -1 37 1 22 7 -26 11 -37 11 -52 2z"/>
<path d="M5356 2852 c-2 -4 12 -6 32 -4 56 5 62 10 15 11 -23 1 -44 -3 -47 -7z"/>
<path d="M5208 2843 c7 -3 16 -2 19 1 4 3 -2 6 -13 5 -11 0 -14 -3 -6 -6z"/>
<path d="M1171 2534 c-25 -13 -53 -32 -63 -41 -22 -20 -23 -6 -2 27 l16 25
-22 -24 c-11 -13 -19 -30 -16 -37 3 -7 1 -16 -4 -19 -17 -11 -11 -64 10 -85
44 -44 163 -11 203 57 16 28 17 38 7 68 -20 60 -58 69 -129 29z m109 -26 c13
-25 13 -31 -3 -61 -22 -40 -72 -67 -126 -67 -51 0 -68 20 -51 59 36 88 146
130 180 69z"/>
<path d="M903 1540 c-11 -16 -10 -18 1 -14 15 6 30 34 18 34 -4 0 -13 -9 -19
-20z"/>
<path d="M940 1543 c0 -6 5 -15 10 -18 6 -3 11 -18 11 -33 1 -21 2 -23 6 -7 3
11 10 23 16 27 7 4 4 10 -8 14 -11 4 -23 12 -27 18 -5 8 -8 7 -8 -1z"/>
<path d="M968 1433 c7 -3 16 -2 19 1 4 3 -2 6 -13 5 -11 0 -14 -3 -6 -6z"/>
<path d="M908 1423 c7 -3 16 -2 19 1 4 3 -2 6 -13 5 -11 0 -14 -3 -6 -6z"/>
<path d="M6430 4550 c11 -11 20 -24 20 -30 0 -5 5 -10 10 -10 12 0 -7 41 -24
52 -22 15 -26 8 -6 -12z"/>
<path d="M6506 4508 c5 -8 2 -9 -10 -5 -10 4 -15 3 -11 -3 3 -6 1 -10 -4 -10
-6 0 -11 -4 -11 -10 0 -5 13 -2 29 8 28 15 32 32 10 32 -6 0 -7 -5 -3 -12z"/>
<path d="M6303 4445 c-9 -19 -21 -35 -25 -35 -5 0 -6 -5 -3 -10 9 -15 55 36
55 61 0 28 -8 23 -27 -16z"/>
<path d="M4901 4446 c-6 -7 -25 -16 -41 -20 -17 -3 -30 -11 -30 -17 0 -8 4 -8
15 1 8 6 20 8 26 4 17 -10 69 -13 63 -3 -2 4 5 14 16 22 11 7 17 16 14 19 -3
3 -17 -5 -31 -18 -14 -13 -31 -24 -37 -24 -6 1 -1 9 12 19 12 11 22 22 22 25
0 11 -17 6 -29 -8z"/>
<path d="M6568 4425 c4 -16 7 -109 7 -205 0 -129 4 -180 13 -195 l14 -20 -8
20 c-10 25 -11 101 -1 140 5 20 4 23 -1 10 -6 -12 -7 21 -5 85 3 78 0 117 -11
150 -9 25 -12 32 -8 15z"/>
<path d="M6501 4373 c0 -17 6 -38 14 -47 8 -8 15 -20 15 -27 0 -7 3 -9 6 -6 4
3 0 21 -9 39 -8 18 -17 42 -20 53 -3 13 -5 9 -6 -12z"/>
<path d="M4796 4373 c-6 -15 -8 -15 -16 -3 -7 11 -10 11 -10 2 0 -22 28 -25
67 -8 32 14 34 16 11 13 -16 -2 -28 0 -28 4 0 16 -18 10 -24 -8z"/>
<path d="M6213 4343 c-10 -10 -13 -14 -6 -10 6 5 18 5 24 1 7 -4 9 -3 5 4 -3
5 0 13 6 15 8 4 9 6 2 6 -7 1 -20 -7 -31 -16z"/>
<path d="M6115 4285 c-16 -8 -23 -14 -15 -14 8 0 26 6 40 14 32 18 15 18 -25
0z"/>
<path d="M6503 4265 c0 -22 2 -30 4 -17 2 12 2 30 0 40 -3 9 -5 -1 -4 -23z"/>
<path d="M6253 4280 c-13 -5 -23 -14 -23 -19 0 -8 66 13 79 25 8 7 -34 3 -56
-6z"/>
<path d="M6059 4249 c-7 -13 -7 -19 -1 -15 6 3 13 2 17 -4 3 -5 0 -10 -7 -10
-9 0 -9 -3 2 -10 8 -5 24 -9 35 -9 16 1 16 2 -5 9 -14 4 -18 9 -10 9 12 1 12
4 -2 12 -10 5 -18 15 -18 20 0 6 5 7 12 3 7 -4 8 -3 4 4 -10 16 -14 15 -27 -9z"/>
<path d="M6537 4220 c3 -11 7 -20 9 -20 2 0 4 9 4 20 0 11 -4 20 -9 20 -5 0
-7 -9 -4 -20z"/>
<path d="M6512 4140 c0 -14 2 -19 5 -12 2 6 2 18 0 25 -3 6 -5 1 -5 -13z"/>
<path d="M6542 4105 c0 -16 2 -22 5 -12 2 9 2 23 0 30 -3 6 -5 -1 -5 -18z"/>
<path d="M6592 4100 c0 -8 4 -26 8 -40 6 -20 8 -21 8 -5 0 11 -3 29 -8 40 -5
12 -8 14 -8 5z"/>
<path d="M6127 4086 c-4 -10 -1 -13 9 -9 7 3 14 9 14 14 0 14 -17 10 -23 -5z"/>
<path d="M6521 4064 c0 -11 3 -14 6 -6 3 7 2 16 -1 19 -3 4 -6 -2 -5 -13z"/>
<path d="M6139 4054 c-10 -13 -10 -17 2 -25 10 -6 11 -11 3 -16 -9 -6 -8 -11
1 -20 10 -9 13 -3 11 33 0 24 -2 44 -2 44 -1 0 -7 -7 -15 -16z"/>
<path d="M6090 4050 c0 -5 5 -10 10 -10 6 0 10 5 10 10 0 6 -4 10 -10 10 -5 0
-10 -4 -10 -10z"/>
<path d="M6562 4005 c0 -16 2 -22 5 -12 2 9 2 23 0 30 -3 6 -5 -1 -5 -18z"/>
<path d="M5765 4000 c-3 -6 5 -10 19 -10 24 0 86 -51 86 -71 0 -5 5 -9 10 -9
20 0 9 23 -29 61 -37 38 -73 50 -86 29z"/>
<path d="M6536 3997 c3 -10 9 -15 12 -12 3 3 0 11 -7 18 -10 9 -11 8 -5 -6z"/>
<path d="M6101 3984 c0 -11 3 -14 6 -6 3 7 2 16 -1 19 -3 4 -6 -2 -5 -13z"/>
<path d="M6582 3970 c0 -19 2 -27 5 -17 2 9 2 25 0 35 -3 9 -5 1 -5 -18z"/>
<path d="M6609 3968 c0 -2 -2 -21 -4 -42 -6 -51 7 -71 16 -26 4 19 3 40 -2 46
-5 6 -6 14 -2 17 3 4 3 7 0 7 -4 0 -7 -1 -8 -2z"/>
<path d="M6046 3910 c-13 -62 -13 -63 4 -68 12 -4 12 -2 3 8 -9 9 -9 19 -2 32
6 10 9 31 7 46 -3 22 -5 19 -12 -18z"/>
<path d="M6552 3930 c0 -14 2 -19 5 -12 2 6 2 18 0 25 -3 6 -5 1 -5 -13z"/>
<path d="M6120 3899 c0 -11 5 -17 10 -14 6 3 10 13 10 21 0 8 -4 14 -10 14 -5
0 -10 -9 -10 -21z"/>
<path d="M6066 3885 c-9 -26 -7 -32 5 -12 6 10 9 21 6 23 -2 3 -7 -2 -11 -11z"/>
<path d="M6106 3861 c-4 -7 -5 -15 -2 -18 9 -9 19 4 14 18 -4 11 -6 11 -12 0z"/>
<path d="M6626 3852 c-2 -4 -1 -14 5 -22 7 -12 9 -10 9 8 0 23 -5 28 -14 14z"/>
<path d="M5166 3820 c4 -14 11 -26 15 -28 5 -2 9 -10 9 -18 0 -8 4 -14 10 -14
5 0 6 -8 3 -17 -6 -15 -5 -16 9 -3 13 13 14 16 2 23 -8 4 -14 15 -14 22 0 8
-4 15 -8 15 -5 0 -14 10 -21 23 -11 22 -11 22 -5 -3z"/>
<path d="M5994 3818 c-7 -11 18 -10 36 2 11 7 10 9 -8 7 -13 -1 -26 -5 -28 -9z"/>
<path d="M6582 3790 c0 -14 4 -38 8 -55 7 -27 8 -27 8 -5 0 14 -4 39 -8 55 -7
27 -8 27 -8 5z"/>
<path d="M6030 3780 c0 -5 4 -10 9 -10 6 0 13 5 16 10 3 6 -1 10 -9 10 -9 0
-16 -4 -16 -10z"/>
<path d="M6641 3774 c0 -11 3 -14 6 -6 3 7 2 16 -1 19 -3 4 -6 -2 -5 -13z"/>
<path d="M5470 3771 c0 -6 4 -13 10 -16 6 -3 7 1 4 9 -7 18 -14 21 -14 7z"/>
<path d="M5971 3769 c-1 -8 5 -23 12 -32 11 -16 12 -15 12 7 0 13 -3 22 -7 20
-3 -2 -9 2 -11 8 -4 9 -6 8 -6 -3z"/>
<path d="M6623 3720 c0 -25 2 -35 4 -22 2 12 2 32 0 45 -2 12 -4 2 -4 -23z"/>
<path d="M5450 3727 c0 -14 5 -29 10 -32 7 -4 8 3 4 22 -9 38 -14 42 -14 10z"/>
<path d="M5815 3721 c-3 -17 -10 -31 -13 -31 -4 0 -12 -11 -19 -25 -6 -14 -7
-25 -2 -25 5 0 9 5 9 11 0 6 6 9 13 6 8 -3 20 -1 28 4 11 6 11 11 1 21 -6 6
-12 19 -12 28 0 13 1 13 10 0 9 -13 10 -13 10 0 0 8 -4 21 -9 29 -7 10 -11 5
-16 -18z m10 -40 c3 -5 1 -12 -5 -16 -5 -3 -10 1 -10 9 0 18 6 21 15 7z"/>
<path d="M6640 3701 c0 -12 5 -21 10 -21 6 0 10 6 10 14 0 8 -4 18 -10 21 -5
3 -10 -3 -10 -14z"/>
<path d="M5496 3691 c-4 -7 -5 -15 -2 -18 9 -9 19 4 14 18 -4 11 -6 11 -12 0z"/>
<path d="M5460 3674 c0 -11 42 -75 46 -71 5 5 -25 65 -37 72 -5 4 -9 3 -9 -1z"/>
<path d="M5868 3673 c7 -3 16 -2 19 1 4 3 -2 6 -13 5 -11 0 -14 -3 -6 -6z"/>
<path d="M5328 3663 c7 -3 16 -2 19 1 4 3 -2 6 -13 5 -11 0 -14 -3 -6 -6z"/>
<path d="M5510 3646 c0 -9 5 -16 10 -16 6 0 10 4 10 9 0 6 -4 13 -10 16 -5 3
-10 -1 -10 -9z"/>
<path d="M5550 3640 c0 -5 5 -10 11 -10 5 0 7 5 4 10 -3 6 -8 10 -11 10 -2 0
-4 -4 -4 -10z"/>
<path d="M6651 3588 c-7 -29 -15 -60 -17 -69 -3 -9 1 -19 9 -22 10 -4 12 3 9
23 -2 16 3 43 12 61 9 18 12 37 8 45 -5 10 -12 -3 -21 -38z"/>
<path d="M5730 3626 c0 -9 30 -14 35 -6 4 6 -3 10 -14 10 -12 0 -21 -2 -21 -4z"/>
<path d="M5575 3610 c-13 -6 -15 -9 -5 -9 8 0 22 4 30 9 18 12 2 12 -25 0z"/>
<path d="M5690 3616 c0 -2 9 -6 20 -9 11 -3 18 -1 14 4 -5 9 -34 13 -34 5z"/>
<path d="M5650 3606 c0 -2 9 -6 20 -9 11 -3 18 -1 14 4 -5 9 -34 13 -34 5z"/>
<path d="M5571 3559 c13 -8 88 -14 78 -5 -2 2 -24 6 -48 9 -29 4 -40 2 -30 -4z"/>
<path d="M6671 3548 c1 -13 4 -34 8 -48 6 -23 8 -23 14 -6 5 12 3 22 -4 27 -7
4 -9 14 -6 23 3 8 2 18 -3 21 -6 4 -10 -4 -9 -17z"/>
<path d="M6596 3455 c-3 -8 -1 -15 4 -15 6 0 10 7 10 15 0 8 -2 15 -4 15 -2 0
-6 -7 -10 -15z"/>
<path d="M6671 3400 c-1 -25 -4 -56 -6 -70 -5 -22 -3 -21 9 5 10 21 11 42 6
70 l-8 40 -1 -45z"/>
<path d="M6580 3380 c0 -19 3 -21 12 -12 9 9 9 15 0 24 -9 9 -12 7 -12 -12z"/>
<path d="M6642 3330 c0 -14 2 -19 5 -12 2 6 2 18 0 25 -3 6 -5 1 -5 -13z"/>
<path d="M6566 3275 c-9 -26 -7 -32 5 -12 6 10 9 21 6 23 -2 3 -7 -2 -11 -11z"/>
<path d="M6530 3254 c0 -8 5 -12 10 -9 6 3 10 10 10 16 0 5 -4 9 -10 9 -5 0
-10 -7 -10 -16z"/>
<path d="M6570 3231 c0 -7 -5 -9 -11 -5 -8 4 -9 -1 -4 -16 7 -21 4 -22 -37
-18 -35 2 -43 0 -42 -14 1 -10 -9 -18 -28 -22 -16 -3 -27 -10 -24 -15 4 -5 19
-3 36 5 16 9 35 12 42 9 7 -4 4 1 -6 9 -11 9 -17 19 -13 22 4 4 12 2 20 -4 20
-17 57 -2 68 26 5 14 7 27 4 30 -3 3 -5 0 -5 -7z"/>
<path d="M6505 3221 c-3 -5 -1 -12 5 -16 5 -3 10 1 10 9 0 18 -6 21 -15 7z"/>
<path d="M6620 3136 c0 -2 7 -7 16 -10 8 -3 12 -2 9 4 -6 10 -25 14 -25 6z"/>
<path d="M6303 3123 c9 -2 25 -2 35 0 9 3 1 5 -18 5 -19 0 -27 -2 -17 -5z"/>
<path d="M6535 3100 c-3 -5 -1 -10 6 -10 8 0 7 -5 -2 -17 -12 -14 -12 -16 1
-11 8 2 16 14 16 26 1 23 -10 29 -21 12z"/>
<path d="M6185 3080 c3 -5 16 -10 28 -9 21 0 21 1 2 9 -28 12 -37 12 -30 0z"/>
<path d="M6235 3060 c-3 -6 1 -7 9 -4 18 7 21 14 7 14 -6 0 -13 -4 -16 -10z"/>
<path d="M6290 3058 c0 -10 17 -9 50 2 21 7 20 8 -12 7 -21 -1 -38 -5 -38 -9z"/>
<path d="M6575 3030 c3 -5 8 -10 11 -10 2 0 4 5 4 10 0 6 -5 10 -11 10 -5 0
-7 -4 -4 -10z"/>
<path d="M6590 3001 c0 -5 5 -13 10 -16 6 -3 10 -2 10 4 0 5 -4 13 -10 16 -5
3 -10 2 -10 -4z"/>
<path d="M6711 2944 c0 -11 3 -14 6 -6 3 7 2 16 -1 19 -3 4 -6 -2 -5 -13z"/>
<path d="M6660 2906 c0 -16 44 -80 48 -68 2 6 -2 17 -8 24 -6 7 -17 22 -25 33
-8 11 -15 16 -15 11z"/>
<path d="M6705 2880 c3 -5 8 -10 11 -10 2 0 4 5 4 10 0 6 -5 10 -11 10 -5 0
-7 -4 -4 -10z"/>
<path d="M6710 2811 c0 -6 4 -13 10 -16 6 -3 7 1 4 9 -7 18 -14 21 -14 7z"/>
<path d="M6746 2784 c-10 -25 1 -29 14 -5 6 12 7 21 1 21 -5 0 -12 -7 -15 -16z"/>
<path d="M5030 2234 c0 -8 5 -12 10 -9 6 4 8 11 5 16 -9 14 -15 11 -15 -7z"/>
<path d="M5033 2155 c0 -22 2 -30 4 -17 2 12 2 30 0 40 -3 9 -5 -1 -4 -23z"/>
<path d="M5290 2171 c12 -9 13 -11 1 -11 -8 0 -12 -2 -10 -5 3 -2 18 0 35 4
16 5 21 10 12 10 -9 1 -25 4 -35 7 -15 5 -15 4 -3 -5z"/>
<path d="M5156 2155 c4 -8 10 -15 15 -15 5 0 9 7 9 15 0 8 -7 15 -15 15 -9 0
-12 -6 -9 -15z"/>
<path d="M5126 2145 c-3 -8 -1 -15 4 -15 6 0 10 7 10 15 0 8 -2 15 -4 15 -2 0
-6 -7 -10 -15z"/>
<path d="M5360 2150 c0 -5 4 -10 9 -10 6 0 13 5 16 10 3 6 -1 10 -9 10 -9 0
-16 -4 -16 -10z"/>
<path d="M5245 2120 c27 -12 43 -12 25 0 -8 5 -22 9 -30 9 -10 0 -8 -3 5 -9z"/>
<path d="M5450 2122 c0 -4 17 -6 38 -4 58 5 62 10 10 11 -27 1 -48 -3 -48 -7z"/>
<path d="M5320 2100 c8 -5 22 -10 30 -10 13 0 13 1 0 10 -8 5 -22 10 -30 10
-13 0 -13 -1 0 -10z"/>
<path d="M5440 2089 c0 -5 5 -7 10 -4 6 3 10 8 10 11 0 2 -4 4 -10 4 -5 0 -10
-5 -10 -11z"/>
<path d="M5685 2090 c11 -5 27 -9 35 -9 9 0 8 4 -5 9 -11 5 -27 9 -35 9 -9 0
-8 -4 5 -9z"/>
<path d="M5070 2070 c0 -5 5 -10 10 -10 21 0 9 -20 -12 -21 -16 0 -18 -2 -8
-6 16 -6 30 -23 30 -36 0 -5 -12 1 -26 12 -27 21 -54 28 -54 13 0 -4 9 -13 20
-20 13 -8 19 -20 17 -35 -2 -12 -2 -16 0 -8 10 28 106 -91 190 -234 182 -312
260 -565 270 -885 6 -181 -4 -308 -32 -391 l-15 -44 5 50 c5 56 -7 29 -18 -40
-4 -27 -3 -35 3 -25 30 47 -14 -97 -61 -199 -21 -46 -55 -105 -74 -132 -19
-27 -35 -51 -35 -54 0 -3 125 -4 277 -3 236 3 277 5 280 18 4 13 3 13 -6 0 -8
-12 -14 -11 -35 10 -27 24 -37 51 -12 31 10 -9 15 -8 19 2 4 10 -2 13 -17 12
-24 -3 -76 51 -80 83 -2 9 -9 18 -17 21 -20 6 -34 26 -80 118 -36 72 -40 85
-30 110 11 28 11 28 6 -7 -4 -29 -3 -32 6 -17 6 11 8 33 5 49 -3 17 1 84 10
150 8 66 13 126 11 133 -3 6 -2 18 3 25 5 9 10 3 15 -18 3 -17 13 -37 22 -44
14 -11 15 -11 10 2 -3 8 -11 32 -18 52 -8 24 -16 35 -25 31 -11 -4 -14 10 -14
69 0 145 -28 299 -92 498 -54 170 -213 437 -347 581 -55 60 -67 79 -58 89 9
10 9 14 0 17 -18 6 -16 23 2 23 9 0 15 9 14 23 0 19 -1 20 -8 4 -6 -17 -8 -17
-20 -3 -15 18 -31 21 -31 6z"/>
<path d="M5388 2073 c7 -3 16 -2 19 1 4 3 -2 6 -13 5 -11 0 -14 -3 -6 -6z"/>
<path d="M5030 2060 c-8 -5 -12 -12 -9 -15 4 -3 12 1 19 10 14 17 11 19 -10 5z"/>
<path d="M5526 2061 c-4 -7 -5 -15 -2 -18 9 -9 19 4 14 18 -4 11 -6 11 -12 0z"/>
<path d="M5568 2063 c6 -2 18 -2 25 0 6 3 1 5 -13 5 -14 0 -19 -2 -12 -5z"/>
<path d="M5860 2061 c0 -6 5 -11 10 -11 6 0 10 -4 10 -10 0 -5 -6 -7 -14 -4
-19 7 -31 -15 -17 -29 9 -9 10 -7 5 8 -7 20 -7 20 14 2 20 -19 42 -16 42 5 0
6 -7 5 -16 -3 -15 -12 -16 -11 -10 7 4 14 1 26 -9 34 -10 8 -15 9 -15 1z"/>
<path d="M5568 2033 c6 -2 18 -2 25 0 6 3 1 5 -13 5 -14 0 -19 -2 -12 -5z"/>
<path d="M5072 1853 c-12 -23 -23 -120 -11 -102 4 7 11 31 14 51 4 21 11 40
16 44 5 3 9 9 9 15 0 15 -19 10 -28 -8z"/>
<path d="M4976 1795 c-3 -9 -6 -22 -5 -28 0 -7 5 -1 10 12 5 13 8 26 5 28 -2
2 -6 -3 -10 -12z"/>
<path d="M4926 1559 c-15 -61 -25 -113 -22 -116 3 -3 8 8 11 23 3 16 12 52 20
79 17 60 29 125 23 125 -2 0 -17 -50 -32 -111z"/>
<path d="M4970 1590 c0 -5 5 -10 10 -10 6 0 10 5 10 10 0 6 -4 10 -10 10 -5 0
-10 -4 -10 -10z"/>
<path d="M5007 1587 c-11 -29 -9 -43 4 -30 6 6 9 19 7 29 -3 18 -4 18 -11 1z"/>
<path d="M4978 1500 c-7 -24 -3 -38 8 -28 3 4 4 17 2 30 l-3 23 -7 -25z"/>
<path d="M4952 1470 c0 -14 4 -36 8 -50 6 -20 8 -21 8 -5 0 11 -4 34 -8 50 -7
27 -8 27 -8 5z"/>
<path d="M4931 1454 c0 -11 3 -14 6 -6 3 7 2 16 -1 19 -3 4 -6 -2 -5 -13z"/>
<path d="M1346 1334 c-8 -21 -6 -123 3 -154 5 -15 7 16 7 72 -1 54 -2 98 -2
98 -1 0 -5 -7 -8 -16z"/>
<path d="M4927 1333 c-4 -3 -7 -11 -7 -17 0 -6 5 -5 12 2 6 6 9 14 7 17 -3 3
-9 2 -12 -2z"/>
<path d="M4858 1308 c-4 -10 -1 -32 6 -49 13 -30 13 -30 19 -8 3 13 4 25 2 28
-3 2 -6 -2 -6 -10 -1 -8 -4 2 -8 21 -5 26 -8 31 -13 18z"/>
<path d="M4837 1239 c-9 -6 -17 -17 -17 -25 0 -11 5 -10 22 6 24 22 22 34 -5
19z"/>
<path d="M4882 1180 c0 -14 2 -19 5 -12 2 6 2 18 0 25 -3 6 -5 1 -5 -13z"/>
<path d="M4843 1095 c7 -13 14 -20 15 -14 5 14 -6 39 -17 39 -5 0 -4 -11 2
-25z"/>
<path d="M5463 1058 c1 -38 5 -68 9 -68 4 0 7 -15 6 -32 -4 -71 2 -158 11
-158 6 0 8 24 4 58 -3 31 -7 89 -8 127 -2 39 -8 86 -13 105 -9 31 -10 28 -9
-32z"/>
<path d="M1480 1106 c0 -8 51 -13 56 -5 3 5 -9 9 -25 9 -17 0 -31 -2 -31 -4z"/>
<path d="M1560 1096 c0 -2 9 -6 20 -9 11 -3 18 -1 14 4 -5 9 -34 13 -34 5z"/>
<path d="M1360 1080 l-55 -7 55 -1 c30 -1 62 3 70 8 17 11 21 11 -70 0z"/>
<path d="M1478 1073 c6 -2 18 -2 25 0 6 3 1 5 -13 5 -14 0 -19 -2 -12 -5z"/>
<path d="M1538 1073 c7 -3 16 -2 19 1 4 3 -2 6 -13 5 -11 0 -14 -3 -6 -6z"/>
<path d="M4822 1031 c-7 -19 -10 -36 -8 -38 8 -8 27 38 24 55 -3 11 -8 5 -16
-17z"/>
<path d="M196 1031 c-13 -21 -35 -136 -27 -144 11 -11 29 39 37 104 6 46 2 61
-10 40z"/>
<path d="M1628 1033 c7 -3 16 -2 19 1 4 3 -2 6 -13 5 -11 0 -14 -3 -6 -6z"/>
<path d="M1798 1013 c7 -3 16 -2 19 1 4 3 -2 6 -13 5 -11 0 -14 -3 -6 -6z"/>
<path d="M1790 990 c0 -5 5 -10 11 -10 5 0 7 5 4 10 -3 6 -8 10 -11 10 -2 0
-4 -4 -4 -10z"/>
<path d="M1833 994 c4 -4 2 -13 -4 -21 -9 -11 -5 -12 22 -7 45 9 45 10 8 23
-18 6 -30 8 -26 5z"/>
<path d="M966 975 c-5 -13 -2 -14 17 -4 32 17 33 19 10 19 -12 0 -23 -7 -27
-15z"/>
<path d="M873 963 c9 -2 23 -2 30 0 6 3 -1 5 -18 5 -16 0 -22 -2 -12 -5z"/>
<path d="M1500 939 c0 -17 -3 -20 -9 -10 -17 27 -20 -8 -5 -60 25 -85 35 -82
28 6 -7 79 -14 112 -14 64z"/>
<path d="M1978 953 c7 -3 16 -2 19 1 4 3 -2 6 -13 5 -11 0 -14 -3 -6 -6z"/>
<path d="M670 940 c-32 -7 -30 -7 20 -9 39 0 51 2 40 9 -8 5 -17 9 -20 9 -3
-1 -21 -5 -40 -9z"/>
<path d="M4706 925 c-9 -26 -7 -32 5 -12 6 10 9 21 6 23 -2 3 -7 -2 -11 -11z"/>
<path d="M5457 865 c3 -44 7 -82 9 -84 7 -8 3 84 -6 124 -6 29 -7 17 -3 -40z"/>
<path d="M4748 899 c-6 -16 18 -44 26 -30 3 4 -1 16 -8 26 -10 14 -14 15 -18
4z"/>
<path d="M4703 884 c-9 -4 -9 -13 -2 -30 14 -37 10 -54 -5 -19 -12 29 -17 28
-29 -7 -4 -12 -2 -15 9 -11 7 3 14 0 14 -7 0 -6 6 -10 13 -7 7 2 12 21 12 45
0 23 0 42 0 41 0 0 -5 -3 -12 -5z"/>
<path d="M4745 839 c-4 -6 -5 -12 -2 -15 2 -3 7 2 10 11 7 17 1 20 -8 4z"/>
<path d="M325 756 c-38 -17 -70 -48 -90 -86 -9 -17 -19 -30 -24 -30 -5 0 -12
-11 -15 -24 -3 -13 -9 -31 -12 -40 -3 -9 -1 -16 4 -16 6 0 13 12 15 28 2 15 5
1 6 -31 1 -78 21 -71 38 13 19 92 41 131 91 158 63 35 53 57 -13 28z"/>
<path d="M5432 710 c0 -19 2 -29 5 -22 11 28 21 8 29 -60 5 -40 8 -84 6 -98
-1 -22 -1 -23 7 -5 12 30 -8 195 -24 195 -8 0 -16 6 -18 13 -3 6 -5 -4 -5 -23z"/>
<path d="M4615 720 c-3 -5 -1 -10 4 -10 6 0 11 5 11 10 0 6 -2 10 -4 10 -3 0
-8 -4 -11 -10z"/>
<path d="M5490 682 l5 -47 3 39 c2 21 0 42 -5 47 -4 4 -6 -13 -3 -39z"/>
<path d="M4683 695 c7 -13 14 -20 15 -14 5 14 -6 39 -17 39 -5 0 -4 -11 2 -25z"/>
<path d="M1381 696 c4 -4 38 -10 75 -12 38 -3 72 -8 76 -10 16 -10 7 -24 -19
-30 l-27 -7 24 -9 c12 -5 25 -6 28 -3 3 3 -1 5 -9 5 -12 0 -11 2 1 10 8 6 29
7 45 4 29 -6 29 -6 -9 21 -32 21 -55 28 -115 32 -42 3 -73 3 -70 -1z"/>
<path d="M4601 694 c-1 -5 5 -18 12 -29 13 -17 14 -17 20 4 4 16 2 21 -8 17
-8 -3 -16 0 -19 7 -2 7 -5 7 -5 1z"/>
<path d="M1310 675 c0 -8 7 -15 15 -15 8 0 15 7 15 15 0 8 -7 15 -15 15 -8 0
-15 -7 -15 -15z"/>
<path d="M4650 679 c0 -5 5 -7 10 -4 6 3 10 8 10 11 0 2 -4 4 -10 4 -5 0 -10
-5 -10 -11z"/>
<path d="M1445 660 c-3 -5 3 -10 14 -10 12 0 21 5 21 10 0 6 -6 10 -14 10 -8
0 -18 -4 -21 -10z"/>
<path d="M1787 625 c-20 -42 -4 -47 18 -5 17 33 18 40 7 40 -5 0 -16 -16 -25
-35z"/>
<path d="M4662 640 c-18 -29 -15 -38 4 -12 9 13 14 25 12 27 -2 2 -9 -5 -16
-15z"/>
<path d="M5416 644 c-4 -9 -4 -19 -1 -22 2 -3 7 3 11 12 4 9 4 19 1 22 -2 3
-7 -3 -11 -12z"/>
<path d="M5676 644 c-9 -24 -7 -31 5 -14 8 11 9 5 5 -25 -2 -22 -2 -32 0 -22
3 9 10 17 15 17 13 0 11 22 -5 43 -12 16 -14 16 -20 1z"/>
<path d="M1965 630 c3 -5 8 -10 11 -10 2 0 4 5 4 10 0 6 -5 10 -11 10 -5 0 -7
-4 -4 -10z"/>
<path d="M5620 593 c0 -28 -3 -65 -6 -82 -4 -20 -3 -31 5 -31 6 0 11 15 11 34
0 19 5 38 10 41 6 3 10 14 9 23 0 14 -2 13 -10 -3 -7 -16 -8 -12 -7 17 1 20
-1 40 -5 44 -4 4 -7 -15 -7 -43z"/>
<path d="M5651 624 c0 -11 3 -14 6 -6 3 7 2 16 -1 19 -3 4 -6 -2 -5 -13z"/>
<path d="M1610 610 c0 -5 5 -10 10 -10 6 0 10 5 10 10 0 6 -4 10 -10 10 -5 0
-10 -4 -10 -10z"/>
<path d="M4546 595 c-3 -8 -1 -15 4 -15 6 0 10 7 10 15 0 8 -2 15 -4 15 -2 0
-6 -7 -10 -15z"/>
<path d="M1036 589 c4 -7 44 0 44 7 0 2 -11 3 -24 2 -14 -1 -23 -5 -20 -9z"/>
<path d="M5453 555 c0 -27 2 -38 4 -22 2 15 2 37 0 50 -2 12 -4 0 -4 -28z"/>
<path d="M5659 545 c-5 -60 -4 -73 7 -63 3 3 4 32 2 64 l-3 59 -6 -60z"/>
<path d="M5720 586 c0 -9 5 -16 10 -16 6 0 10 4 10 9 0 6 -4 13 -10 16 -5 3
-10 -1 -10 -9z"/>
<path d="M4519 548 c-6 -11 -8 -22 -5 -26 3 -3 6 1 6 8 0 7 2 11 5 8 10 -9 -6
-37 -18 -32 -18 6 -39 -33 -29 -53 11 -19 27 0 18 23 -4 11 -1 14 13 9 15 -5
22 2 31 31 9 27 15 33 23 25 9 -9 8 -14 -3 -21 -8 -5 -11 -12 -7 -17 5 -4 12
-1 18 7 8 13 10 13 19 0 5 -8 10 -10 10 -5 0 19 -29 52 -50 58 -14 3 -24 -1
-31 -15z"/>
<path d="M1657 539 c-8 -28 20 -59 34 -38 12 19 11 25 -7 43 -20 20 -21 20
-27 -5z m33 -20 c0 -5 -4 -9 -10 -9 -5 0 -10 7 -10 16 0 8 5 12 10 9 6 -3 10
-10 10 -16z"/>
<path d="M4606 547 c3 -10 9 -15 12 -12 3 3 0 11 -7 18 -10 9 -11 8 -5 -6z"/>
<path d="M170 528 c0 -17 2 -20 9 -9 7 11 10 7 14 -15 4 -25 5 -25 3 5 -1 39
-26 57 -26 19z"/>
<path d="M868 533 c6 -2 18 -2 25 0 6 3 1 5 -13 5 -14 0 -19 -2 -12 -5z"/>
<path d="M5387 527 c-4 -10 -7 -26 -7 -35 1 -15 2 -15 11 1 6 10 9 25 7 35 -3
16 -4 15 -11 -1z"/>
<path d="M810 513 c-13 -15 -12 -16 4 -10 10 4 25 7 34 7 15 0 15 2 2 10 -20
13 -22 12 -40 -7z"/>
<path d="M2110 520 c0 -5 5 -10 11 -10 5 0 7 5 4 10 -3 6 -8 10 -11 10 -2 0
-4 -4 -4 -10z"/>
<path d="M5766 504 c-9 -24 -7 -27 9 -10 17 17 19 26 6 26 -5 0 -12 -7 -15
-16z"/>
<path d="M2118 493 c-2 -5 -1 -82 2 -173 l6 -165 2 173 c2 155 0 188 -10 165z"/>
<path d="M5410 490 c0 -5 5 -10 10 -10 6 0 10 5 10 10 0 6 -4 10 -10 10 -5 0
-10 -4 -10 -10z"/>
<path d="M1912 465 c0 -16 2 -22 5 -12 2 9 2 23 0 30 -3 6 -5 -1 -5 -18z"/>
<path d="M2085 269 c0 -120 3 -211 7 -201 9 23 10 410 1 415 -5 3 -8 -93 -8
-214z"/>
<path d="M4565 480 c-3 -6 1 -7 9 -4 18 7 21 14 7 14 -6 0 -13 -4 -16 -10z"/>
<path d="M1670 469 c0 -5 5 -7 10 -4 6 3 10 8 10 11 0 2 -4 4 -10 4 -5 0 -10
-5 -10 -11z"/>
<path d="M5784 465 c-10 -24 4 -62 36 -99 17 -18 30 -38 30 -42 0 -5 -7 0 -16
11 -13 17 -16 18 -25 5 -8 -11 -9 -9 -4 10 5 19 4 21 -4 10 -5 -8 -13 -11 -18
-7 -4 5 -3 11 3 15 7 5 4 17 -9 37 -18 28 -18 22 0 -22 4 -11 3 -14 -5 -9 -9
6 -9 1 0 -18 6 -14 16 -27 22 -27 13 -2 28 -5 39 -9 4 -1 12 -3 18 -4 17 -2
59 -59 52 -70 -4 -6 -2 -8 2 -3 9 8 105 -80 105 -96 0 -4 -12 5 -26 20 l-27
28 8 -25 c7 -23 38 -66 60 -82 12 -8 25 -1 25 15 0 8 -3 8 -9 -1 -6 -10 -10
-10 -21 3 -10 12 -11 18 -1 28 10 9 11 8 5 -7 -6 -15 -4 -18 9 -13 17 6 41
-15 29 -27 -4 -4 -2 -6 3 -4 15 4 78 -50 71 -61 -3 -5 1 -12 10 -15 10 -4 13
-2 8 7 -5 9 -4 9 7 0 7 -7 31 -13 52 -13 l40 0 -173 168 c-111 108 -171 173
-166 181 5 7 2 10 -6 9 -7 -2 -12 3 -10 10 1 6 -2 11 -7 10 -11 -4 -71 71 -71
88 0 19 -29 18 -36 -1z"/>
<path d="M4532 451 c-7 -4 -14 -14 -15 -22 -2 -8 -7 -21 -12 -29 -8 -13 -7
-13 8 -1 9 7 17 19 17 27 0 7 8 18 18 23 9 6 13 10 7 11 -5 0 -16 -4 -23 -9z"/>
<path d="M1380 437 c0 -7 7 -22 15 -33 13 -17 14 -16 4 14 -11 33 -19 41 -19
19z"/>
<path d="M4861 389 c-10 -20 -10 -35 -1 -67 14 -53 44 -82 87 -82 41 0 43 16
3 25 -35 8 -60 48 -70 110 l-6 40 -13 -26z"/>
<path d="M5330 349 c-13 -24 -4 -41 10 -19 10 16 13 40 5 40 -2 0 -9 -9 -15
-21z"/>
<path d="M4435 350 c-3 -5 -1 -10 4 -10 6 0 11 5 11 10 0 6 -2 10 -4 10 -3 0
-8 -4 -11 -10z"/>
<path d="M316 334 c-6 -15 -4 -15 11 -3 10 7 20 15 22 16 2 2 -3 3 -11 3 -9 0
-19 -7 -22 -16z"/>
<path d="M384 340 c-49 -11 -90 -46 -114 -95 -12 -25 -26 -42 -32 -39 -7 4 -7
-2 -3 -17 9 -26 37 -68 46 -69 3 0 9 24 12 54 7 74 19 91 82 127 30 17 55 35
55 40 0 10 -2 10 -46 -1z m-127 -172 c-3 -8 -6 -5 -6 6 -1 11 2 17 5 13 3 -3
4 -12 1 -19z"/>
<path d="M279 303 c-13 -16 -12 -17 4 -4 9 7 17 15 17 17 0 8 -8 3 -21 -13z"/>
<path d="M5376 288 c9 -18 18 -35 20 -37 6 -7 21 44 17 57 -9 22 -25 13 -19
-10 l6 -23 -11 23 c-7 12 -16 22 -21 22 -5 0 -1 -15 8 -32z"/>
<path d="M5620 315 c0 -8 49 -115 53 -115 2 0 4 17 4 38 1 30 0 32 -6 12 -6
-23 -8 -20 -20 23 -8 26 -18 47 -22 47 -5 0 -9 -2 -9 -5z"/>
<path d="M5661 294 c0 -11 3 -14 6 -6 3 7 2 16 -1 19 -3 4 -6 -2 -5 -13z"/>
<path d="M5852 290 c3 -8 1 -23 -4 -32 -11 -23 -6 -23 14 1 15 18 15 21 1 33
-14 11 -15 11 -11 -2z"/>
<path d="M5369 251 c8 -13 5 -33 -9 -72 -11 -29 -17 -55 -15 -58 3 -2 5 -2 5
0 0 2 9 28 20 58 14 39 17 59 9 72 -5 11 -12 19 -15 19 -2 0 0 -8 5 -19z"/>
<path d="M5285 250 c-3 -5 1 -10 9 -10 9 0 16 5 16 10 0 6 -4 10 -9 10 -6 0
-13 -4 -16 -10z"/>
<path d="M5795 250 c-3 -5 3 -10 15 -10 12 0 18 5 15 10 -3 6 -10 10 -15 10
-5 0 -12 -4 -15 -10z"/>
<path d="M241 234 c0 -11 3 -14 6 -6 3 7 2 16 -1 19 -3 4 -6 -2 -5 -13z"/>
<path d="M5724 214 c-17 -14 -17 -15 -1 -10 10 3 23 6 28 6 5 0 9 5 9 10 0 14
-13 12 -36 -6z"/>
<path d="M1285 211 c-6 -5 -19 -11 -30 -14 -16 -4 -14 -5 6 -6 16 -1 29 5 33
14 6 17 4 19 -9 6z"/>
<path d="M1310 199 c0 -5 5 -7 10 -4 6 3 10 8 10 11 0 2 -4 4 -10 4 -5 0 -10
-5 -10 -11z"/>
<path d="M1558 168 c-15 -24 -35 -53 -43 -65 -14 -18 -14 -27 -4 -65 7 -25 14
-36 16 -26 3 9 -1 27 -8 39 -9 17 -9 24 0 27 6 2 11 10 11 18 0 8 12 26 27 40
14 13 28 36 29 49 1 14 2 25 1 25 -1 0 -14 -19 -29 -42z"/>
<path d="M5936 193 c-4 -9 -1 -21 5 -27 9 -8 10 -7 4 3 -4 7 -2 16 5 21 8 5 8
10 2 14 -5 3 -13 -2 -16 -11z"/>
<path d="M1382 188 c-19 -19 -14 -26 13 -24 13 2 22 -1 19 -5 -3 -5 -1 -9 4
-9 6 0 13 7 16 16 3 8 2 12 -4 9 -6 -3 -10 -1 -10 6 0 8 -5 7 -17 -2 -15 -12
-16 -12 -10 4 8 20 5 21 -11 5z"/>
<path d="M5735 180 c3 -5 10 -10 16 -10 5 0 9 5 9 10 0 6 -7 10 -16 10 -8 0
-12 -4 -9 -10z"/>
<path d="M212 156 c-15 -33 -15 -53 -1 -62 8 -4 9 0 4 15 -5 15 -2 21 10 21
10 0 14 -5 9 -12 -5 -10 -3 -10 7 0 10 9 11 15 3 20 -7 4 -13 16 -15 26 -4 17
-6 16 -17 -8z"/>
<path d="M1063 173 c-23 -3 -30 -8 -26 -19 3 -7 9 -12 14 -9 4 3 30 6 56 7 26
1 40 3 31 6 -10 2 -18 8 -18 13 0 5 -6 8 -12 7 -7 0 -27 -3 -45 -5z"/>
<path d="M5246 165 c-9 -26 -7 -32 5 -12 6 10 9 21 6 23 -2 3 -7 -2 -11 -11z"/>
<path d="M985 155 c-5 -2 -23 -6 -39 -10 -23 -5 -27 -8 -15 -16 7 -5 19 -9 24
-9 6 0 3 5 -5 10 -12 8 -10 10 10 10 14 0 32 5 40 10 14 9 6 12 -15 5z"/>
<path d="M1238 153 c7 -3 16 -2 19 1 4 3 -2 6 -13 5 -11 0 -14 -3 -6 -6z"/>
<path d="M1365 149 c-16 -6 -16 -8 -3 -8 9 -1 23 -4 32 -7 9 -3 16 -2 16 4 0
15 -22 20 -45 11z"/>
<path d="M5301 149 c10 -6 11 -11 3 -16 -6 -5 -16 -18 -23 -31 -9 -18 -9 -22
1 -20 8 2 12 -5 11 -17 -2 -18 -1 -18 9 2 6 13 15 23 20 23 4 0 8 8 8 17 0 15
-2 14 -14 -3 -8 -10 -18 -15 -22 -11 -5 4 -4 11 1 15 6 4 18 17 28 28 17 21
17 22 -9 22 -18 0 -22 -3 -13 -9z"/>
<path d="M5710 155 c0 -1 11 -15 25 -31 14 -16 25 -24 25 -17 0 6 -4 15 -10
18 -15 9 -12 27 3 19 6 -4 9 -3 4 1 -6 7 -47 16 -47 10z"/>
<path d="M1570 125 c0 -8 5 -15 10 -15 6 0 10 7 10 15 0 8 -4 15 -10 15 -5 0
-10 -7 -10 -15z"/>
<path d="M5256 131 c-4 -7 -5 -15 -2 -18 9 -9 19 4 14 18 -4 11 -6 11 -12 0z"/>
<path d="M876 121 c-3 -4 6 -8 20 -9 13 -1 24 0 24 2 0 7 -40 14 -44 7z"/>
<path d="M5221 120 c-1 -21 16 -46 26 -37 4 5 3 11 -3 15 -6 4 -14 14 -17 22
-5 13 -5 13 -6 0z"/>
<path d="M5917 114 c-9 -10 4 -34 19 -34 16 0 16 2 8 24 -6 17 -16 20 -27 10z"/>
<path d="M1579 98 c-8 -25 -8 -98 0 -98 6 0 11 21 11 50 0 28 -2 50 -5 50 -3
0 -5 -1 -6 -2z"/>
<path d="M5186 58 c-18 -36 -19 -38 -8 -38 5 0 13 16 19 35 14 43 9 45 -11 3z"/>
<path d="M1923 40 c0 -25 2 -35 4 -22 2 12 2 32 0 45 -2 12 -4 2 -4 -23z"/>
<path d="M2112 60 c0 -14 2 -19 5 -12 2 6 2 18 0 25 -3 6 -5 1 -5 -13z"/>
<path d="M5816 59 c-11 -14 -14 -25 -8 -31 6 -6 13 2 20 21 13 37 12 37 -12
10z"/>
<path d="M6080 62 c0 -5 9 -17 20 -27 11 -10 20 -15 20 -12 0 4 -9 16 -20 27
-11 11 -20 16 -20 12z"/>
<path d="M6085 10 c-3 -5 -1 -10 4 -10 6 0 11 5 11 10 0 6 -2 10 -4 10 -3 0
-8 -4 -11 -10z"/>
</g>
</svg>
